<?xml version="1.0" encoding="UTF-8" standalone="no"?>
<svg
   xmlns:dc="http://purl.org/dc/elements/1.1/"
   xmlns:cc="http://creativecommons.org/ns#"
   xmlns:rdf="http://www.w3.org/1999/02/22-rdf-syntax-ns#"
   xmlns:svg="http://www.w3.org/2000/svg"
   xmlns="http://www.w3.org/2000/svg"
   xmlns:sodipodi="http://sodipodi.sourceforge.net/DTD/sodipodi-0.dtd"
   xmlns:inkscape="http://www.inkscape.org/namespaces/inkscape"
   width="210mm"
   height="297mm"
   viewBox="0 0 210 297"
   version="1.1"
   id="svg8"
   inkscape:version="1.0.1 (3bc2e813f5, 2020-09-07)"
   sodipodi:docname="BeeKeepLogo.svg">
  <defs
     id="defs2">
    <inkscape:perspective
       sodipodi:type="inkscape:persp3d"
       inkscape:vp_x="0 : 148.5 : 1"
       inkscape:vp_y="0 : 1000 : 0"
       inkscape:vp_z="210 : 148.5 : 1"
       inkscape:persp3d-origin="105 : 99 : 1"
       id="perspective926" />
  </defs>
  <sodipodi:namedview
     id="base"
     pagecolor="#ffffff"
     bordercolor="#666666"
     borderopacity="1.0"
     inkscape:pageopacity="0.0"
     inkscape:pageshadow="2"
     inkscape:zoom="0.73673541"
     inkscape:cx="275.99286"
     inkscape:cy="722.45977"
     inkscape:document-units="mm"
     inkscape:current-layer="layer2"
     inkscape:document-rotation="0"
     showgrid="false"
     inkscape:window-width="1920"
     inkscape:window-height="1017"
     inkscape:window-x="-8"
     inkscape:window-y="-8"
     inkscape:window-maximized="1" />
  <metadata
     id="metadata5">
    <rdf:RDF>
      <cc:Work
         rdf:about="">
        <dc:format>image/svg+xml</dc:format>
        <dc:type
           rdf:resource="http://purl.org/dc/dcmitype/StillImage" />
        <dc:title></dc:title>
      </cc:Work>
    </rdf:RDF>
  </metadata>
  <g
     inkscape:label="Layer 1"
     inkscape:groupmode="layer"
     id="layer1"
     sodipodi:insensitive="true"
     style="display:inline">
    <rect
       style="fill:#800000;fill-opacity:0;stroke-width:0.264583"
       id="rect1104-2"
       width="152.87358"
       height="122.90833"
       x="60.032375"
       y="188.76013" />
    <path
       sodipodi:type="star"
       style="fill:#000000;fill-opacity:1;stroke-width:0.070215"
       id="path55-5-8-9"
       sodipodi:sides="6"
       sodipodi:cx="108.0403"
       sodipodi:cy="237.84721"
       sodipodi:r1="36.679031"
       sodipodi:r2="31.940969"
       sodipodi:arg1="1.0435093"
       sodipodi:arg2="1.5549863"
       inkscape:flatsided="false"
       inkscape:rounded="0"
       inkscape:randomized="0"
       d="m 126.49685,269.54433 -17.95158,0.23986 -18.727206,-0.10458 -9.183516,-15.42659 -9.273031,-16.27053 8.768064,-15.66645 9.45417,-16.16594 17.951579,-0.23986 18.7272,0.10458 9.18352,15.42659 9.27303,16.27052 -8.76806,15.66646 z" />
    <path
       sodipodi:type="star"
       style="fill:#000000;fill-opacity:1;stroke-width:0.070215"
       id="path55-5-8-9-2"
       sodipodi:sides="6"
       sodipodi:cx="161.77914"
       sodipodi:cy="206.25578"
       sodipodi:r1="36.679031"
       sodipodi:r2="31.940969"
       sodipodi:arg1="1.0435093"
       sodipodi:arg2="1.5549863"
       inkscape:flatsided="false"
       inkscape:rounded="0"
       inkscape:randomized="0"
       d="m 180.23569,237.9529 -17.95158,0.23986 -18.7272,-0.10458 -9.18352,-15.42659 -9.27303,-16.27053 8.76807,-15.66645 9.45417,-16.16594 17.95158,-0.23986 18.7272,0.10458 9.18351,15.42659 9.27304,16.27052 -8.76807,15.66646 z" />
    <path
       sodipodi:type="star"
       style="fill:#000000;fill-opacity:1;stroke-width:0.070215"
       id="path55-5-8-9-9"
       sodipodi:sides="6"
       sodipodi:cx="107.94519"
       sodipodi:cy="175.62872"
       sodipodi:r1="36.679031"
       sodipodi:r2="31.940969"
       sodipodi:arg1="1.0435093"
       sodipodi:arg2="1.5549863"
       inkscape:flatsided="false"
       inkscape:rounded="0"
       inkscape:randomized="0"
       d="m 126.40174,207.32584 -17.95158,0.23986 -18.727204,-0.10458 -9.183516,-15.42659 -9.273031,-16.27053 8.768064,-15.66645 9.45417,-16.16594 17.951577,-0.23986 18.7272,0.10458 9.18352,15.42659 9.27303,16.27052 -8.76806,15.66646 z" />
  </g>
  <g
     inkscape:groupmode="layer"
     id="layer2"
     inkscape:label="Layer 2"
     style="display:inline">
    <path
       sodipodi:type="star"
       style="fill:#ffff00;fill-opacity:1;stroke-width:0.0661455"
       id="path55"
       sodipodi:sides="6"
       sodipodi:cx="107.94519"
       sodipodi:cy="175.62872"
       sodipodi:r1="34.55331"
       sodipodi:r2="30.089838"
       sodipodi:arg1="1.0435093"
       sodipodi:arg2="1.5549863"
       inkscape:flatsided="false"
       inkscape:rounded="0"
       inkscape:randomized="0"
       d="m 125.3321,205.48884 -16.91121,0.22596 -17.64187,-0.0985 -8.651286,-14.53255 -8.735619,-15.32757 8.259917,-14.75851 8.906254,-15.22905 16.911204,-0.22595 17.64187,0.0985 8.65129,14.53255 8.73562,15.32757 -8.25992,14.75851 z" />
    <path
       sodipodi:type="star"
       style="fill:#abebff;fill-opacity:1;stroke-width:0.0661456"
       id="path55-5"
       sodipodi:sides="6"
       sodipodi:cx="108.0403"
       sodipodi:cy="237.84721"
       sodipodi:r1="34.55331"
       sodipodi:r2="30.089838"
       sodipodi:arg1="1.0435093"
       sodipodi:arg2="1.5549863"
       inkscape:flatsided="false"
       inkscape:rounded="0"
       inkscape:randomized="0"
       d="m 125.4272,267.70733 -16.9112,0.22596 -17.641872,-0.0985 -8.651286,-14.53256 -8.735619,-15.32757 8.259917,-14.75851 8.906254,-15.22905 16.911206,-0.22595 17.64187,0.0985 8.65129,14.53256 8.73561,15.32756 -8.25991,14.75851 z" />
    <path
       style="fill:#abebff;fill-opacity:1;stroke-width:0.35913"
       d="m 144.37262,235.0826 c -2.38788,-3.86092 -8.40501,-14.11611 -12.15715,-20.7198 l -4.57988,-8.06048 1.67197,-3.07253 c 2.06372,-3.79243 10.37585,-18.32109 13.26389,-23.18376 l 2.13294,-3.59129 17.12046,-0.0933 17.12046,-0.0933 4.63585,7.81453 c 2.54972,4.298 6.44813,10.99369 8.66313,14.87933 l 4.02728,7.06478 -3.48422,6.223 c -1.91632,3.42265 -5.76394,10.142 -8.55026,14.93189 l -5.06603,8.70888 h -17.14935 -17.14934 z"
       id="path901" />
    <rect
       style="fill:#2b0000;fill-opacity:1;stroke-width:0.264583"
       id="rect991"
       width="18.854292"
       height="1.4365175"
       x="137.45224"
       y="92.623573"
       transform="rotate(30)" />
    <rect
       style="fill:#2b0000;fill-opacity:1;stroke-width:0.264583"
       id="rect991-4"
       width="18.854292"
       height="1.4365175"
       x="-149.10262"
       y="106.05753"
       transform="rotate(-88.5)" />
    <path
       sodipodi:type="star"
       style="fill:#ffffff;fill-opacity:1;stroke-width:0.0661456"
       id="path55-5-7"
       sodipodi:sides="6"
       sodipodi:cx="59.620445"
       sodipodi:cy="124.18169"
       sodipodi:r1="34.55331"
       sodipodi:r2="30.089838"
       sodipodi:arg1="1.0435093"
       sodipodi:arg2="1.5549863"
       inkscape:flatsided="false"
       inkscape:rounded="0"
       inkscape:randomized="0"
       transform="matrix(0.80341167,0,0,0.80426403,60.152755,138.09945)"
       d="m 77.00735,154.04181 -16.911203,0.22595 -17.641872,-0.0985 -8.651287,-14.53256 -8.735618,-15.32756 8.259917,-14.75851 8.906253,-15.229054 16.911204,-0.225957 17.641872,0.09852 8.651286,14.532555 8.735619,15.32757 -8.259918,14.75851 z" />
    <path
       sodipodi:type="star"
       style="fill:#abebff;fill-opacity:1;stroke-width:0.0661456"
       id="path55-5-4"
       sodipodi:sides="6"
       sodipodi:cx="161.77914"
       sodipodi:cy="206.25578"
       sodipodi:r1="34.55331"
       sodipodi:r2="30.089838"
       sodipodi:arg1="1.0435093"
       sodipodi:arg2="1.5549863"
       inkscape:flatsided="false"
       inkscape:rounded="0"
       inkscape:randomized="0"
       d="m 179.16605,236.1159 -16.9112,0.22596 -17.64188,-0.0985 -8.65128,-14.53255 -8.73562,-15.32757 8.25992,-14.75851 8.90625,-15.22905 16.9112,-0.22595 17.64187,0.0985 8.65129,14.53255 8.73562,15.32757 -8.25992,14.75851 z" />
    <path
       sodipodi:type="star"
       style="fill:#ffffff;fill-opacity:1;stroke-width:0.0661456"
       id="path55-5-7-4"
       sodipodi:sides="6"
       sodipodi:cx="59.620445"
       sodipodi:cy="124.18169"
       sodipodi:r1="34.55331"
       sodipodi:r2="30.089838"
       sodipodi:arg1="1.0435093"
       sodipodi:arg2="1.5549863"
       inkscape:flatsided="false"
       inkscape:rounded="0"
       inkscape:randomized="0"
       transform="matrix(0.87579547,0,0,0.88362922,109.56389,96.52516)"
       d="m 77.00735,154.04181 -16.911203,0.22595 -17.641872,-0.0985 -8.651287,-14.53256 -8.735618,-15.32756 8.259917,-14.75851 8.906253,-15.229054 16.911204,-0.225957 17.641872,0.09852 8.651286,14.532555 8.735619,15.32757 -8.259918,14.75851 z" />
    <path
       sodipodi:type="star"
       style="fill:#abebff;fill-opacity:1;stroke-width:0.0661456"
       id="path55-5-2"
       sodipodi:sides="6"
       sodipodi:cx="161.77914"
       sodipodi:cy="206.25578"
       sodipodi:r1="34.55331"
       sodipodi:r2="30.089838"
       sodipodi:arg1="1.0435093"
       sodipodi:arg2="1.5549863"
       inkscape:flatsided="false"
       inkscape:rounded="0"
       inkscape:randomized="0"
       d="m 179.16605,236.1159 -16.9112,0.22596 -17.64188,-0.0985 -8.65128,-14.53255 -8.73562,-15.32757 8.25992,-14.75851 8.90625,-15.22905 16.9112,-0.22595 17.64187,0.0985 8.65129,14.53255 8.73562,15.32757 -8.25992,14.75851 z" />
    <path
       sodipodi:type="star"
       style="fill:#ffffff;fill-opacity:1;stroke-width:0.0661456"
       id="path55-5-7-0"
       sodipodi:sides="6"
       sodipodi:cx="59.620445"
       sodipodi:cy="124.18169"
       sodipodi:r1="34.55331"
       sodipodi:r2="30.089838"
       sodipodi:arg1="1.0435093"
       sodipodi:arg2="1.5549863"
       inkscape:flatsided="false"
       inkscape:rounded="0"
       inkscape:randomized="0"
       transform="matrix(0.80341166,0,0,0.80426404,113.8916,106.50803)"
       d="m 77.00735,154.04181 -16.911203,0.22595 -17.641872,-0.0985 -8.651287,-14.53256 -8.735618,-15.32756 8.259917,-14.75851 8.906253,-15.229054 16.911204,-0.225957 17.641872,0.09852 8.651286,14.532555 8.735619,15.32757 -8.259918,14.75851 z" />
    <rect
       style="fill:#ffd42a;fill-opacity:0;stroke-width:0.264583"
       id="rect1104"
       width="152.87358"
       height="122.90833"
       x="58.069683"
       y="134.23489" />
    <rect
       style="fill:#ffd42a;fill-opacity:0;stroke-width:0.264583"
       id="rect1104-0"
       width="152.87358"
       height="122.90833"
       x="-78.46833"
       y="-67.745384" />
    <rect
       style="display:inline;fill:#2b0000;fill-opacity:1;stroke-width:0.181741"
       id="rect942-6-4"
       width="62.459568"
       height="4.4496279"
       x="-28.372931"
       y="188.19063"
       transform="matrix(0.87175422,-0.48994344,0.51012441,0.86010063,0,0)" />
    <rect
       style="display:inline;fill:#2b0000;fill-opacity:1;stroke-width:0.181741"
       id="rect942-6-4-6"
       width="62.459568"
       height="4.4496279"
       x="-28.118795"
       y="219.21429"
       transform="matrix(0.87175423,-0.48994343,0.51012442,0.86010062,0,0)" />
    <rect
       style="display:inline;fill:#2b0000;fill-opacity:1;stroke-width:0.181741"
       id="rect942-6-4-6-7"
       width="62.459568"
       height="4.4496279"
       x="-28.147854"
       y="203.7095"
       transform="matrix(0.87175423,-0.48994343,0.51012442,0.86010062,0,0)" />
  </g>
</svg>
