<?xml version="1.0" encoding="UTF-8" standalone="no"?>
<svg
   xmlns:dc="http://purl.org/dc/elements/1.1/"
   xmlns:cc="http://creativecommons.org/ns#"
   xmlns:rdf="http://www.w3.org/1999/02/22-rdf-syntax-ns#"
   xmlns:svg="http://www.w3.org/2000/svg"
   xmlns="http://www.w3.org/2000/svg"
   xmlns:sodipodi="http://sodipodi.sourceforge.net/DTD/sodipodi-0.dtd"
   xmlns:inkscape="http://www.inkscape.org/namespaces/inkscape"
   version="1.1"
   id="svg833"
   width="382"
   height="341"
   viewBox="0 0 382 341"
   sodipodi:docname="blah-blog.svg"
   inkscape:version="1.0 (4035a4fb49, 2020-05-01)">
  <metadata
     id="metadata839">
    <rdf:RDF>
      <cc:Work
         rdf:about="">
        <dc:format>image/svg+xml</dc:format>
        <dc:type
           rdf:resource="http://purl.org/dc/dcmitype/StillImage" />
        <dc:title />
      </cc:Work>
    </rdf:RDF>
  </metadata>
  <defs
     id="defs837">
    <filter
       inkscape:collect="always"
       style="color-interpolation-filters:sRGB"
       id="filter1373"
       x="-2.9886986e-05"
       width="1.0000598"
       y="-3.0113872e-05"
       height="1.0000602">
      <feGaussianBlur
         inkscape:collect="always"
         stdDeviation="0.0041904854"
         id="feGaussianBlur1375" />
    </filter>
    <filter
       inkscape:collect="always"
       style="color-interpolation-filters:sRGB"
       id="filter1504"
       x="-0.00015419999"
       width="1.0003084"
       y="-5.1133677e-05"
       height="1.0001023">
      <feGaussianBlur
         inkscape:collect="always"
         stdDeviation="0.00065157618"
         id="feGaussianBlur1506" />
    </filter>
  </defs>
  <sodipodi:namedview
     inkscape:document-rotation="0"
     pagecolor="#ffffff"
     bordercolor="#666666"
     borderopacity="1"
     objecttolerance="10"
     gridtolerance="10"
     guidetolerance="10"
     inkscape:pageopacity="0"
     inkscape:pageshadow="2"
     inkscape:window-width="1366"
     inkscape:window-height="705"
     id="namedview835"
     showgrid="false"
     inkscape:zoom="0.55780564"
     inkscape:cx="260.73779"
     inkscape:cy="159.56663"
     inkscape:window-x="-8"
     inkscape:window-y="-8"
     inkscape:window-maximized="1"
     inkscape:current-layer="layer2" />
  <g
     inkscape:groupmode="layer"
     id="layer4"
     inkscape:label="Image 4" />
  <g
     inkscape:groupmode="layer"
     id="layer3"
     inkscape:label="Image 3"
     style="filter:url(#filter1373)" />
  <g
     inkscape:groupmode="layer"
     id="layer1"
     inkscape:label="Image 1" />
  <g
     inkscape:groupmode="layer"
     inkscape:label="Image"
     id="g841" />
  <g
     inkscape:groupmode="layer"
     id="layer2"
     inkscape:label="Image 2">
    <g
       transform="translate(17.927391)"
       id="g1540">
      <ellipse
         ry="166.77425"
         rx="167.67061"
         cy="171.2066"
         cx="174.79205"
         id="path1470"
         style="opacity:0.997;fill:#1e3d73;fill-opacity:1;stroke:#000000;stroke-width:0.845862;stroke-linejoin:round;stroke-opacity:0;paint-order:stroke fill markers" />
      <path
         id="path1443"
         d="m 104.81912,291.82057 c -3.06045,-0.77349 -8.209585,-3.27536 -11.063116,-5.37537 -2.554148,-1.87969 -8.170691,-7.69507 -10.818546,-11.20154 -7.938361,-10.51253 -15.379372,-27.80911 -18.332766,-42.61439 -1.217466,-6.10312 -1.679819,-17.39464 -0.90126,-22.01046 0.707585,-4.19504 2.565928,-8.01932 4.934804,-10.15533 2.273404,-2.04992 8.052238,-4.89717 12.119469,-5.97129 4.042455,-1.06759 15.105874,-1.05751 19.496035,0.0178 8.3321,2.04075 14.66363,6.79305 17.96316,13.48276 1.54098,3.12431 1.75697,3.95078 1.75697,6.72277 0,5.0722 -2.69219,9.99255 -9.55834,17.46916 l -2.91171,3.17058 5.85283,0.29095 c 8.86843,0.44086 12.87414,1.84665 16.38329,5.74967 3.64761,4.05701 5.05322,10.46519 4.67178,21.29866 -0.27556,7.82664 -0.85953,10.36693 -3.76058,16.35874 -2.67956,5.53432 -7.39852,10.45483 -11.57364,12.06795 -3.45095,1.33333 -10.40115,1.67424 -14.25838,0.69939 z m 0.71865,-15.50703 c 5.29963,-2.65959 7.07192,-7.51787 4.6412,-12.72269 -3.04866,-6.52801 -8.03887,-8.2664 -12.09268,-4.21258 -1.750815,1.75081 -1.761863,1.78373 -1.529088,4.55671 0.393818,4.69143 2.108713,11.10615 3.283032,12.28047 1.315766,1.31577 3.206286,1.34831 5.697536,0.0981 z M 90.086637,229.81796 c 1.154879,-1.19672 2.798728,-3.34552 3.652999,-4.77509 2.034554,-3.40472 2.088585,-6.24663 0.189199,-9.95155 -1.619971,-3.1599 -4.018402,-4.61036 -7.623543,-4.61036 -3.149896,0 -3.524805,0.67516 -3.141795,5.65799 0.434208,5.64888 2.304506,13.74146 3.534791,15.29465 0.713808,0.90115 1.169039,0.68409 3.388349,-1.61564 z"
         style="opacity:1;fill:#000000;fill-opacity:0;stroke:#000000;stroke-width:0.423482;stroke-linejoin:round;stroke-opacity:0;paint-order:stroke fill markers;filter:url(#filter1373)" />
      <path
         id="path1445"
         d="m 72.726714,184.9 c -7.075606,-1.51649 -13.919229,-5.35816 -17.645112,-9.90511 -2.188472,-2.67074 -4.21739,-7.12904 -5.082103,-11.16731 -1.761484,-8.22624 0.962374,-32.89624 5.488168,-49.70635 C 59.512602,99.171457 65.638261,84.37497 71.532715,75.364527 80.627709,61.46164 90.89468,56.908365 102.93216,61.43926 c 10.90577,4.104923 16.01629,13.006011 15.32236,26.687253 -0.55213,10.88558 -4.14866,17.928907 -11.16596,21.867017 -1.41738,0.79544 -2.57706,1.62904 -2.57706,1.85244 0,0.2234 1.00431,1.14341 2.2318,2.04447 3.23132,2.37201 7.02051,6.74153 8.54539,9.85416 1.94011,3.96017 2.34402,6.99501 2.11924,15.92316 -0.19128,7.59817 -0.24867,7.99455 -1.83691,12.68616 -1.87227,5.53068 -5.17637,12.33794 -8.26752,17.03314 -5.11616,7.77102 -12.590383,12.9553 -21.746067,15.08353 -5.849212,1.35965 -8.133657,1.43611 -12.830719,0.42941 z m 7.390921,-19.53125 c 7.037985,-2.3641 10.763616,-8.49311 11.263803,-18.53003 0.263808,-5.29365 -0.277983,-9.02188 -1.754273,-12.07171 -1.121166,-2.31617 -4.200364,-5.85568 -5.094161,-5.85568 -0.933467,0 -2.827385,2.79775 -3.836571,5.66749 -2.234013,6.35269 -5.703703,26.87901 -5.017838,29.68501 0.496248,2.03025 1.178639,2.2001 4.43904,1.10492 z M 92.695997,99.219086 c 1.279238,-0.854926 2.920051,-2.567385 3.972268,-4.145709 1.733933,-2.600896 1.797709,-2.829788 1.944243,-6.977629 0.145154,-4.108676 0.100837,-4.348738 -1.056757,-5.724459 -2.435198,-2.89407 -3.979531,-2.786486 -5.600118,0.390122 -1.749426,3.429159 -4.475244,15.651457 -3.85251,17.274279 0.406788,1.06007 2.284273,0.72626 4.592874,-0.816604 z"
         style="opacity:1;fill:#000000;fill-opacity:0;stroke:#000000;stroke-width:0.423482;stroke-linejoin:round;stroke-opacity:0;paint-order:stroke fill markers;filter:url(#filter1373)" />
      <path
         id="path1447"
         d="m 139.99337,190.24383 c -4.13522,-0.59213 -10.66092,-2.79995 -13.74856,-4.65151 -5.60066,-3.35856 -8.28777,-7.16957 -8.28777,-11.75418 0,-3.05074 0.80308,-9.43455 2.94484,-23.40899 3.71999,-24.27204 4.7256,-35.34637 4.72135,-51.994387 -0.004,-17.301465 -1.36865,-29.988865 -4.06837,-37.835739 -1.25072,-3.635275 -3.79025,-8.20867 -7.3148,-13.173088 -1.62967,-2.295435 -3.10076,-4.607451 -3.26909,-5.137815 -0.48718,-1.534971 2.28842,-3.586498 6.89558,-5.096706 3.50843,-1.150054 4.50763,-1.278429 9.95056,-1.278429 5.69255,0 6.18471,0.07084 8.31919,1.197355 6.98012,3.683906 12.9648,14.840463 15.49018,28.876562 0.84482,4.695549 0.98517,7.502874 1.17473,23.496821 0.23565,19.882546 -0.30166,36.638126 -1.7226,53.718616 -0.54884,6.59735 -0.74694,11.09193 -0.49978,11.33909 0.56515,0.56516 10.29757,0.49402 14.66187,-0.10716 6.14879,-0.847 9.59857,-1.68298 17.84448,-4.3242 6.13101,-1.96381 8.15986,-2.4474 8.73961,-2.08316 1.31843,0.82835 1.15805,5.81347 -0.57418,17.84671 -0.87498,6.0782 -1.87522,11.5929 -2.22277,12.25488 -3.08567,5.87739 -14.48612,9.9874 -33.13583,11.94589 -7.13494,0.74928 -11.52262,0.79604 -15.89864,0.16944 z"
         style="opacity:1;fill:#000000;fill-opacity:0;stroke:#000000;stroke-width:0.423482;stroke-linejoin:round;stroke-opacity:0;paint-order:stroke fill markers;filter:url(#filter1373)" />
      <path
         id="path1449"
         d="m 172.41149,309.02485 c -2.46501,-0.20995 -6.09531,-0.69478 -8.06732,-1.07741 -8.62923,-1.67431 -20.46338,-5.70403 -24.7793,-8.43776 -2.97137,-1.88208 -3.05548,-2.31618 -2.16437,-11.17091 2.16943,-21.55694 1.94167,-56.30673 -0.4452,-67.92667 -1.70938,-8.32168 -5.40515,-16.99017 -9.08944,-21.3194 -1.23974,-1.45677 -2.16576,-2.79157 -2.05781,-2.96623 0.77192,-1.249 14.48755,-0.65659 20.52027,0.88632 11.65592,2.98108 17.07562,10.27743 18.6598,25.12097 0.48054,4.50265 1.14973,21.45067 1.63078,41.30146 l 0.28947,11.94535 1.40701,0.29003 c 0.77385,0.15951 8.81886,0.4042 17.87779,0.54376 l 16.4708,0.25374 v 5.04342 c 0,6.12363 -0.85363,11.28597 -2.91547,17.63138 -1.96817,6.05713 -2.88025,7.53636 -5.30944,8.61091 -3.6349,1.60789 -12.24172,2.10452 -22.02757,1.27104 z"
         style="opacity:1;fill:#000000;fill-opacity:0;stroke:#000000;stroke-width:0.423482;stroke-linejoin:round;stroke-opacity:0;paint-order:stroke fill markers;filter:url(#filter1373)" />
      <path
         id="path1451"
         d="m 208.71446,272.61903 c -10.17737,-2.1861 -16.31316,-5.55263 -23.10455,-12.6768 -4.11418,-4.31578 -5.75049,-6.64555 -8.05837,-11.47339 -3.17052,-6.63242 -3.74524,-9.6239 -3.76787,-19.61231 -0.0191,-8.41018 0.0266,-8.87107 1.21056,-12.22772 1.41201,-4.00311 3.91654,-9.14223 5.7264,-11.75016 1.62734,-2.34494 8.05969,-8.68607 11.18582,-11.02719 4.9392,-3.6989 10.36841,-5.90441 17.0321,-6.91895 10.40109,-1.58357 19.3838,0.11855 28.23564,5.35032 13.79012,8.15046 22.40924,23.94882 22.40924,41.07483 0,8.28493 -2.10469,15.27082 -6.70416,22.25251 -5.898,8.95273 -16.08301,15.4437 -26.9097,17.14967 -6.53339,1.02948 -12.01505,0.98474 -17.25511,-0.14081 z m 8.7396,-15.55001 c 6.77025,-1.07965 12.32385,-5.34852 15.5521,-11.95439 1.67116,-3.41963 1.70302,-3.58126 1.70302,-8.63895 0,-4.71007 -0.10217,-5.3472 -1.18583,-7.39505 -2.36841,-4.47573 -7.77208,-9.32053 -12.48381,-11.19269 -2.97451,-1.18189 -9.82036,-1.43063 -13.96936,-0.50756 -5.71778,1.27208 -11.08525,5.56163 -12.7055,10.15391 -1.62665,4.61041 -1.06522,13.14972 1.16783,17.76259 1.2603,2.60344 6.02483,7.69385 8.97052,9.5841 4.16097,2.67009 6.96139,3.14321 12.95103,2.18804 z"
         style="opacity:1;fill:#000000;fill-opacity:0;stroke:#000000;stroke-width:0.423482;stroke-linejoin:round;stroke-opacity:0;paint-order:stroke fill markers;filter:url(#filter1373)" />
      <path
         id="path1453"
         d="m 212.74812,182.54139 c -5.27233,-1.38407 -9.7906,-4.80317 -11.55599,-8.74473 -0.76774,-1.71413 -0.96811,-3.24983 -1.12972,-8.65882 -0.18555,-6.21024 0.48927,-19.50725 1.1079,-21.8305 l 0.28395,-1.06637 -5.33359,0.39409 c -2.93348,0.21675 -6.82232,0.34232 -8.64187,0.27904 -10.50458,-0.36529 -18.60831,-5.96578 -23.96896,-16.56494 l -1.1825,-2.33806 v -11.92572 -11.92571 l 2.69371,-5.283544 c 5.52479,-10.836529 11.41269,-16.447731 21.23243,-20.234624 4.74125,-1.828419 8.80274,-2.53076 17.69251,-3.059515 4.03289,-0.239873 7.4615,-0.565695 7.61914,-0.724043 0.15765,-0.158352 0.27919,-2.236937 0.27012,-4.619077 -0.0148,-3.882667 -0.15887,-4.632829 -1.39121,-7.244365 -1.61983,-3.432656 -5.3031,-7.323659 -8.22826,-8.692315 -1.58322,-0.740776 -2.88405,-0.943256 -6.05049,-0.941789 -3.70065,0.0017 -4.3116,0.134455 -7.40022,1.607846 -3.42788,1.635231 -7.07059,4.300014 -10.8252,7.919045 l -2.09076,2.015268 -1.27063,-0.909753 c -5.14223,-3.681796 -13.5957,-14.987781 -13.5957,-18.18341 0,-4.357086 18.11916,-12.239154 33.61386,-14.622464 4.7714,-0.733911 16.83623,-0.64656 22.22819,0.160937 8.54602,1.279845 15.20031,4.506785 20.8512,10.111607 3.35677,3.329419 4.16207,4.448642 6.14293,8.537669 3.84807,7.943428 4.30568,10.426609 4.29484,23.305609 -0.0126,15.041431 -1.22401,26.456298 -6.68247,62.969958 -3.35559,22.44681 -4.25714,30.45248 -4.25714,37.8031 0,4.69499 0.13246,5.6347 1.1038,7.83107 1.31377,2.97066 1.92943,2.59989 -6.48201,3.90372 -7.75249,1.2017 -16.04247,1.51975 -19.04786,0.73079 z m -15.85991,-57.05371 2.96385,-0.27999 1.88824,-11.35596 c 1.03853,-6.24579 1.91488,-12.49381 1.94744,-13.884493 0.0835,-3.564862 -0.50389,-3.935009 -5.73242,-3.612536 -7.55388,0.465884 -12.18435,2.648589 -15.13707,7.135279 -2.46566,3.74661 -3.60145,7.21839 -3.63924,11.12412 -0.0294,3.03663 0.11353,3.64301 1.31755,5.59046 2.81035,4.54564 7.65822,6.10813 16.39165,5.28312 z"
         style="opacity:1;fill:#000000;fill-opacity:0;stroke:#000000;stroke-width:0.423482;stroke-linejoin:round;stroke-opacity:0;paint-order:stroke fill markers;filter:url(#filter1373)" />
      <path
         id="path1455"
         d="m 250.45585,179.22007 c -2.36945,-4.59833 -3.22162,-12.46026 -2.54815,-23.50857 0.58341,-9.57084 1.07927,-14.34838 4.06088,-39.12525 5.61748,-46.68083 6.23646,-62.260254 2.89204,-72.791899 -0.58704,-1.848588 -0.9679,-3.460511 -0.84636,-3.582051 0.12154,-0.121541 2.67771,0.979066 5.68037,2.445792 13.70217,6.693179 19.97204,12.967875 22.83322,22.850826 0.94808,3.274789 1.03235,4.421468 1.01996,13.877992 -0.0106,8.124635 -0.2297,11.931929 -1.03413,17.973209 -0.56135,4.215731 -0.95864,8.753601 -0.88287,10.084161 0.15788,2.77235 -0.48171,2.62436 6.31102,1.46029 2.40928,-0.41287 4.68003,-0.97107 5.04609,-1.24044 0.76852,-0.56551 1.52709,-8.652392 1.54376,-16.457494 0.0122,-5.725579 0.3153,-6.220012 3.27373,-5.340628 2.19414,0.652203 14.20196,6.547657 14.93489,7.332549 0.48273,0.516955 2.5967,11.926133 3.95974,21.370863 1.71381,11.87528 3.18128,30.30141 3.60505,45.26666 0.13612,4.80678 0.35662,10.78314 0.49002,13.2808 l 0.24253,4.54121 -2.60351,-0.60543 c -2.60845,-0.60658 -12.20803,-1.46377 -18.51407,-1.65322 l -3.36138,-0.10099 -0.75511,-10.75643 c -1.16844,-16.64429 -2.0881,-25.6319 -2.79622,-27.32667 -0.80768,-1.93304 -1.91192,-2.24466 -6.57581,-1.85571 -5.30741,0.44262 -6.68129,1.02737 -8.01591,3.41175 -1.02512,1.83143 -1.14318,2.58454 -1.28422,8.19241 -0.15688,6.23757 0.5993,23.40865 1.08681,24.67909 0.19938,0.51956 -0.15617,0.7591 -1.45426,0.97978 -6.83626,1.16218 -15.5185,3.75359 -21.10385,6.29892 -1.84775,0.84204 -3.63171,1.53099 -3.96435,1.53099 -0.33265,0 -0.89061,-0.55463 -1.23991,-1.23251 z"
         style="opacity:1;fill:#000000;fill-opacity:0;stroke:#000000;stroke-width:0.423482;stroke-linejoin:round;stroke-opacity:0;paint-order:stroke fill markers;filter:url(#filter1373)" />
      <path
         id="path1457"
         d="m 227.46042,309.09415 c -4.14697,-0.89188 -5.82957,-2.47951 -7.28264,-6.8716 -2.82135,-8.52785 -2.00445,-18.00653 1.86909,-21.68748 1.73503,-1.64877 3.61591,-2.62455 9.81176,-5.09023 7.75854,-3.08758 11.97959,-5.54768 20.26224,-11.80919 9.16498,-6.92854 9.92703,-7.33513 12.37387,-6.60203 2.16346,0.64818 6.72203,3.96937 8.09522,5.89783 2.82386,3.96575 0.64969,6.12224 -13.93507,13.82174 -12.4733,6.58483 -15.37562,8.41411 -15.57464,9.81647 -0.11539,0.81306 0.2001,1.16209 1.56864,1.73543 4.78907,2.00632 18.0164,-1.60012 31.33483,-8.54346 14.52423,-7.57196 21.29793,-14.09305 22.98862,-22.13128 0.72325,-3.43868 0.64989,-6.7832 -0.15559,-7.09229 -0.36031,-0.13826 -2.52841,0.20598 -4.81798,0.76499 -4.90798,1.19831 -15.35767,1.48294 -18.59798,0.50659 -3.20978,-0.96716 -5.54663,-3.12004 -7.41909,-6.83501 -2.05048,-4.06819 -2.96044,-7.70773 -4.9823,-19.92767 -1.74453,-10.54382 -2.93871,-14.5569 -5.71805,-19.21577 -3.49328,-5.85561 -5.76524,-10.6368 -5.76524,-12.13257 0,-2.49929 1.64933,-4.31132 5.83706,-6.41282 4.83854,-2.4281 9.12249,-3.18105 20.15765,-3.54291 14.11392,-0.46282 28.94909,0.80849 35.52841,3.04462 3.69938,1.25731 9.86644,4.45069 12.65146,6.55108 3.01215,2.27169 6.44014,7.47623 8.0453,12.2148 1.187,3.50413 1.28947,4.32429 1.28751,10.30579 -0.004,10.47703 -0.96116,13.7306 -8.50947,28.90791 -8.82602,17.7464 -17.18932,29.838 -25.92169,37.47746 -11.93618,10.44227 -35.36075,22.736 -49.52442,25.9915 -4.31157,0.99101 -20.28917,1.57178 -23.6075,0.8581 z m 69.38109,-74.60853 c 9.41335,-1.99525 17.86865,-11.19937 17.86865,-19.45111 0,-2.16498 -0.21764,-2.88017 -1.34153,-4.40842 -1.6372,-2.22626 -5.39537,-5.1835 -8.11778,-6.38774 -4.42393,-1.95692 -15.25392,-1.59887 -19.69401,0.6511 -6.72663,3.40864 -10.43255,10.14685 -9.39078,17.07456 1.02914,6.84368 3.94234,11.51554 7.92635,12.71137 2.02208,0.60695 9.51663,0.4954 12.7491,-0.18976 z"
         style="opacity:1;fill:#000000;fill-opacity:0;stroke:#000000;stroke-width:0.423482;stroke-linejoin:round;stroke-opacity:0;paint-order:stroke fill markers;filter:url(#filter1373)" />
      <ellipse
         ry="158.73375"
         rx="158.73373"
         cy="172.99933"
         cx="174.79207"
         id="path1465"
         style="opacity:0.997;fill:#ffffff;fill-opacity:1;stroke:#000000;stroke-width:0.792195;stroke-linejoin:round;stroke-opacity:0;paint-order:stroke fill markers;filter:url(#filter1373)" />
      <g
         transform="translate(51.526051,-323.39508)"
         id="g1386">
        <path
           id="path861"
           d="m 114.21612,658.95369 c -1.18506,-0.48377 -3.55229,-0.72526 -5.69012,-0.58047 -2.23978,0.15172 -4.23693,-0.0676 -5.14498,-0.56498 -0.85289,-0.46716 -2.44075,-0.6663 -3.733152,-0.46817 -1.6153,0.24762 -2.48835,0.0564 -3.09847,-0.67879 -0.62023,-0.74734 -1.42634,-0.91534 -2.98705,-0.62256 -1.31894,0.24745 -2.49567,0.10382 -3.07264,-0.37502 -0.51428,-0.42682 -1.937271,-0.65903 -3.162191,-0.51602 -1.22492,0.14299 -2.22713,0.0774 -2.22713,-0.1457 0,-0.22313 -1.56873,-0.75676 -3.48606,-1.18584 -1.91734,-0.42908 -3.48606,-1.06413 -3.48606,-1.41123 0,-0.34709 -0.54645,-0.45765 -1.21432,-0.24567 -0.66788,0.21197 -1.39776,0.0886 -1.62198,-0.27421 -0.22422,-0.36279 -0.952604,-0.65961 -1.618634,-0.65961 -0.66604,0 -2.22337,-0.56863 -3.46075,-1.26363 -1.23738,-0.69499 -2.45826,-1.22015 -2.71306,-1.16703 -0.60357,0.12585 -2.5474,-0.57236 -4.79299,-1.72162 -0.98692,-0.50509 -2.12781,-0.91389 -2.53532,-0.90844 -0.68117,0.009 -6.43308,-2.59229 -8.66378,-3.91834 -0.52291,-0.31085 -1.44988,-0.73277 -2.05994,-0.93761 -0.61006,-0.20484 -1.1092,-0.65491 -1.1092,-1.00016 0,-0.34525 -0.42784,-0.46354 -0.95075,-0.26288 -0.52291,0.20066 -0.95074,0.15469 -0.95074,-0.10215 0,-0.25683 -1.56873,-1.14416 -3.48606,-1.97183 -1.91733,-0.82768 -3.48606,-1.74948 -3.48606,-2.04845 0,-0.29897 -0.42784,-0.54358 -0.95074,-0.54358 -0.52291,0 -0.95075,-0.28523 -0.95075,-0.63383 0,-0.34861 -0.57044,-0.63383 -1.26766,-0.63383 -0.69721,0 -1.26765,-0.29229 -1.26765,-0.64952 0,-0.35723 -0.71306,-0.92062 -1.58458,-1.25197 -0.87151,-0.33135 -1.58457,-0.89474 -1.58457,-1.25197 0,-0.35723 -0.45915,-0.64952 -1.02033,-0.64952 -0.56119,0 -2.60194,-1.44549 -4.53502,-3.21222 -1.93307,-1.76672 -5.11051,-4.30603 -7.06098,-5.64291 -3.77552,-2.58779 -21.7421101,-21.08069 -28.5925301,-29.4301 -2.2604499,-2.75507 -4.6090399,-5.536 -5.2190999,-6.17983 -0.61006,-0.64385 -1.15763,-1.38454 -1.21681,-1.646 -0.36868,-1.62865 -3.25586,-7.13057 -3.74183,-7.13057 -0.32305,0 -0.58737,-0.57045 -0.58737,-1.26766 0,-0.69721 -0.28522,-1.26766 -0.63383,-1.26766 -0.3486,0 -0.56483,-0.21391 -0.4805,-0.47537 0.25851,-0.80148 -6.47259,-14.10269 -7.13669,-14.10269 -0.34242,0 -0.62258,-0.85671 -0.62258,-1.90379 0,-1.04708 -0.57045,-2.96811 -1.26766,-4.26896 -0.69721,-1.30085 -1.26766,-2.80507 -1.26766,-3.34273 0,-0.53765 -0.42777,-1.58829 -0.95061,-2.33474 -0.52284,-0.74646 -0.77755,-1.8082 -0.56602,-2.35944 0.21153,-0.55123 0.0689,-1.00224 -0.31704,-1.00224 -0.38591,0 -0.70164,-0.71306 -0.70164,-1.58457 0,-0.87152 -0.24958,-1.58458 -0.55461,-1.58458 -0.48211,0 -0.99179,-1.48388 -1.74164,-5.07063 -0.10932,-0.52291 -0.49159,-2.23424 -0.84949,-3.80297 -0.66225,-2.90274 -1.77537,-10.05543 -2.36732,-15.2119 -0.18009,-1.56872 -0.65254,-3.2516 -1.04988,-3.73973 -0.43974,-0.54021 -0.66042,-2.8694 -0.56394,-5.95222 0.10753,-3.43601 -0.13708,-5.65723 -0.76066,-6.90722 -0.59359,-1.18988 -0.80535,-2.89818 -0.59784,-4.82288 0.33233,-3.08245 1.47443,-18.73492 1.81127,-24.82342 0.10535,-1.90411 0.50922,-3.56791 0.8975,-3.69733 0.39111,-0.13037 0.70597,-1.62521 0.70597,-3.35165 0,-1.88584 0.28156,-3.11633 0.71306,-3.11633 0.45217,0 0.57572,-0.68671 0.33768,-1.87691 -0.20646,-1.0323 -0.0995,-2.04741 0.23768,-2.2558 0.33719,-0.2084 0.61307,-1.36035 0.61307,-2.5599 0,-1.19955 0.28522,-2.18099 0.63383,-2.18099 0.34861,0 0.63383,-0.71306 0.63383,-1.58458 0,-0.87151 0.30563,-1.58457 0.67919,-1.58457 0.37355,0 0.61637,-0.64175 0.53959,-1.42611 -0.0768,-0.78437 0.0759,-1.92526 0.33936,-2.53532 0.26343,-0.61006 0.31479,-1.53704 0.11414,-2.05994 -0.22224,-0.57914 -10e-4,-0.95075 0.56601,-0.95075 1.13331,0 1.2427,-1.67002 0.13857,-2.11554 -0.47331,-0.19099 -0.34572,-0.33984 0.31691,-0.36973 0.67665,-0.0305 1.1092,-0.55309 1.1092,-1.34 0,-0.70948 0.39582,-1.92167 0.8796,-2.69377 0.48378,-0.7721 1.06178,-2.44474 1.28443,-3.71699 0.22266,-1.27224 0.82512,-2.66198 1.3388,-3.0883 0.51369,-0.42632 0.93398,-1.13243 0.93398,-1.56913 0,-1.21767 4.09133,-9.84347 5.95158,-12.54779 0.9099,-1.32275 1.65436,-2.78525 1.65436,-3.24999 0,-0.46474 0.42345,-1.19642 0.941,-1.62595 0.51755,-0.42953 1.56639,-2.03318 2.33075,-3.56367 0.76437,-1.53049 1.62442,-2.78271 1.91123,-2.78271 0.28682,0 0.52148,-0.38363 0.52148,-0.8525 0,-0.46888 0.57045,-1.36876 1.26766,-1.99973 0.69721,-0.63097 1.26766,-1.46223 1.26766,-1.84725 0,-0.38503 0.57045,-1.05629 1.26766,-1.49171 0.6972099,-0.43542 1.2676599,-1.16113 1.2676599,-1.6127 0,-0.45157 0.99828,-1.78861 2.2184,-2.9712 1.22012,-1.18258 2.2184,-2.42115 2.2184,-2.75237 0,-0.53064 2.42093,-3.39811 7.3530802,-8.70937 0.83628,-0.90056 1.53734,-1.89884 1.55789,-2.2184 0.0457,-0.71002 7.8092499,-7.23621 8.6082099,-7.23621 0.3143,0 2.93117,-2.28179 5.81527,-5.07063 2.8841,-2.78885 5.49575,-5.07064 5.80365,-5.07064 0.30792,0 1.11313,-0.70338 1.78936,-1.56307 0.67624,-0.8597 1.41112,-1.38148 1.63308,-1.15953 0.22195,0.22196 1.06534,-0.21815 1.87419,-0.97803 0.80885,-0.75988 1.61761,-1.23462 1.79724,-1.055 0.17963,0.17963 0.84442,-0.24559 1.47733,-0.94494 0.6329,-0.69935 1.53436,-1.27155 2.00324,-1.27155 0.46887,0 0.85251,-0.27686 0.85251,-0.61525 0,-0.33839 1.49742,-1.33576 3.3276,-2.21638 3.50491,-1.68646 5.65191,-2.93011 6.17983,-3.57968 0.1743,-0.21447 0.98808,-0.59956 1.80839,-0.85575 0.82031,-0.25619 2.50015,-1.1503 3.73297,-1.98691 1.23281,-0.83662 2.72459,-1.52112 3.31506,-1.52112 0.59046,0 1.27106,-0.1975 1.51245,-0.43888 0.24139,-0.24139 1.05836,-0.53343 1.8155,-0.64898 0.75713,-0.11554 1.81937,-0.61078 2.36052,-1.10052 0.54116,-0.48974 1.19647,-0.91761 1.45624,-0.95083 2.27078,-0.2904 4.2814,-0.91081 4.2814,-1.32111 0,-0.27439 1.10807,-0.68609 2.46238,-0.9149 1.35431,-0.22881 3.03528,-0.94976 3.73551,-1.60212 0.70022,-0.65235 1.42699,-1.03224 1.61504,-0.84418 0.18805,0.18805 1.37291,0.002 2.633024,-0.41422 1.2601,-0.41587 2.91924,-0.83451 3.68698,-0.9303 0.76774,-0.0958 2.10895,-0.4844 2.98046,-0.86355 0.87152,-0.37915 3.22461,-1.00744 5.22909,-1.3962 2.004481,-0.38876 3.646371,-0.90053 3.648631,-1.13727 0.003,-0.23674 2.17022,-0.51974 4.81768,-0.6289 2.64747,-0.10915 5.569152,-0.51318 6.492642,-0.89783 2.48479,-1.03497 41.77666,-1.06509 43.13176,-0.0331 0.55761,0.42467 2.36865,0.7812 4.02453,0.79229 1.65588,0.0111 3.01069,0.30538 3.01069,0.65399 0,0.3486 1.14089,0.63382 2.53532,0.63382 1.39442,0 2.53531,0.28976 2.53531,0.6439 0,0.35414 0.78436,0.63085 1.74303,0.6149 2.46748,-0.041 5.86292,0.69663 5.86292,1.27374 0,0.26795 1.08864,0.5022 2.41919,0.52056 2.54898,0.0352 7.72207,1.80925 7.72207,2.64822 0,0.27117 1.27686,0.68452 2.83746,0.91854 1.5606,0.23403 2.98357,0.66192 3.16215,0.95086 0.17857,0.28895 1.39742,0.7192 2.70854,0.95613 2.59086,0.46818 12.90704,5.1979 13.56346,6.21851 0.22248,0.34592 0.72162,0.43296 1.1092,0.19342 0.38758,-0.23954 0.7047,-0.13347 0.7047,0.23571 0,0.36918 0.42783,0.67124 0.95074,0.67124 0.52291,0 0.95074,0.28522 0.95074,0.63383 0,0.3486 0.39291,0.63383 0.87314,0.63383 0.48022,0 1.26458,0.47201 1.74303,1.04892 0.47844,0.57691 1.72556,1.45763 2.77138,1.95716 3.88046,1.85346 4.75372,2.37676 4.75372,2.84868 0,0.26594 0.4335,0.48353 0.96333,0.48353 1.36718,0 5.54438,2.747 8.17033,5.37294 1.22815,1.22815 2.53537,2.23301 2.90493,2.23301 1.00102,0 31.06178,30.19738 31.06178,31.20295 0,0.23275 0.75443,1.22224 1.67653,2.19887 2.81356,2.97998 11.42511,16.49671 12.63998,19.83981 0.0633,0.17431 0.32398,0.95867 0.5792,1.74303 0.25522,0.78437 0.71599,1.42612 1.02394,1.42612 0.30794,0 0.52905,0.21392 0.49135,0.47537 -0.13806,0.95746 0.86633,3.3276 1.41013,3.3276 0.30795,0 0.55991,0.28327 0.55991,0.62948 0,1.05918 2.1705,5.70881 2.66494,5.70881 0.25542,0 0.28441,0.46908 0.0644,1.0424 -0.24345,0.63442 0.0503,1.37172 0.75067,1.88381 0.69067,0.50503 1.12945,1.58825 1.09757,2.70958 -0.0292,1.02797 0.33264,2.01621 0.80459,2.19731 0.51114,0.19615 0.71966,0.857 0.51606,1.63557 -0.20242,0.77403 -0.0369,1.30643 0.40596,1.30643 0.41118,0 0.68583,0.49914 0.61034,1.1092 -0.14135,1.1423 0.34332,2.81916 1.3715,4.74511 0.32315,0.60533 0.58755,1.53231 0.58755,2.05995 0,0.52763 0.32088,0.95934 0.71306,0.95934 0.45217,0 0.57572,0.68671 0.33767,1.87691 -0.20645,1.0323 -0.0995,2.04742 0.23769,2.25581 0.33719,0.2084 0.61307,1.2009 0.61307,2.20557 0,1.00467 0.28627,2.0036 0.63616,2.21984 0.34988,0.21624 0.46064,1.09245 0.24613,1.94712 -0.222,0.88453 -0.0454,1.9692 0.40993,2.51784 0.81934,0.98724 1.25747,3.80086 1.2619,8.1038 0.001,1.33592 0.47446,3.33248 1.0513,4.4368 0.89929,1.72168 1.04831,4.40483 1.04549,18.82423 -0.003,14.4909 -0.14655,17.03498 -1.03917,18.39729 -0.56972,0.86952 -1.06027,2.85713 -1.0901,4.41692 -0.12007,6.2779 -0.33886,7.92932 -1.11617,8.42503 -0.54633,0.3484 -0.67909,1.23182 -0.40483,2.69377 0.26597,1.41774 0.16279,2.17535 -0.29627,2.17535 -0.3874,0 -0.70437,0.83884 -0.70437,1.86408 0,1.02525 -0.25189,2.01976 -0.55975,2.21003 -0.30786,0.19027 -0.76196,1.96436 -1.0091,3.94242 -0.24714,1.97807 -0.69273,4.04971 -0.99019,4.60364 -0.29747,0.55394 -0.71197,2.07674 -0.92111,3.38402 -0.20915,1.30727 -0.65257,2.37685 -0.98537,2.37685 -0.33281,0 -0.60511,0.52291 -0.60511,1.16202 0,0.63912 -0.21392,1.37594 -0.47537,1.6374 -0.26146,0.26145 -0.48279,0.66552 -0.49185,0.89792 -0.009,0.2324 -0.53847,1.20304 -1.17646,2.15698 -0.63799,0.95394 -1.77883,3.23572 -2.5352,5.07063 -0.75637,1.83491 -1.86709,4.07066 -2.46827,4.96831 -1.18279,1.76611 -1.66855,6.77288 -0.72332,7.45545 0.3198,0.23094 0.58145,0.70511 0.58145,1.05371 0,1.5216 1.80359,6.65521 2.33818,6.65521 0.32387,0 0.45128,0.2226 0.28314,0.49467 -0.16815,0.27207 0.38546,3.15583 1.23024,6.40836 0.84478,3.25254 1.53597,7.00622 1.53597,8.34153 0,1.33531 0.24502,2.57926 0.54447,2.76434 0.29946,0.18507 0.72047,1.84194 0.93558,3.68192 0.61709,5.27828 0.43961,39.66439 -0.22827,44.22739 -0.90542,6.18583 -2.53089,13.24267 -3.13654,13.61699 -1.12431,0.69486 -2.43383,-0.48319 -3.55247,-3.19583 -0.63852,-1.54836 -1.38769,-2.81521 -1.66482,-2.81521 -0.27714,0 -0.50389,-0.27256 -0.50389,-0.60568 0,-0.73944 -2.85373,-5.00798 -3.99778,-5.97978 -0.45554,-0.38696 -1.61951,-1.78449 -2.58658,-3.1056 -4.03174,-5.50774 -14.57074,-13.22751 -22.25485,-16.3016 -2.09164,-0.83677 -4.09798,-1.73212 -4.45854,-1.98967 -0.36056,-0.25754 -2.43067,-0.75413 -4.60023,-1.10353 -4.45589,-0.7176 -7.79037,0.19482 -9.0048,2.464 -0.37344,0.69778 -1.20889,1.2687 -1.85653,1.2687 -0.64766,0 -1.34172,0.42783 -1.54239,0.95074 -0.20066,0.52291 -0.75018,0.95075 -1.22116,0.95075 -0.47099,0 -1.47633,0.71305 -2.23411,1.58457 -0.75777,0.87151 -1.80749,1.58457 -2.3327,1.58457 -0.52521,0 -0.95493,0.28522 -0.95493,0.63383 0,0.34861 -0.39918,0.63383 -0.88705,0.63383 -0.48788,0 -2.37049,0.99828 -4.18359,2.2184 -1.81309,1.22012 -3.55309,2.2184 -3.86666,2.2184 -0.31358,0 -0.57014,0.26257 -0.57014,0.58347 0,0.3209 -0.82609,0.76491 -1.83577,0.98667 -1.00967,0.22176 -2.33233,0.9519 -2.93924,1.62253 -0.60692,0.67064 -2.06261,1.39928 -3.23487,1.61919 -1.17226,0.21992 -2.13138,0.65333 -2.13138,0.96314 0,0.30981 -0.42784,0.56329 -0.95075,0.56329 -0.52291,0 -0.95074,0.28523 -0.95074,0.63383 0,0.34861 -0.65854,0.63383 -1.46343,0.63383 -0.80489,0 -2.01708,0.41876 -2.69377,0.93059 -0.67669,0.51181 -1.83718,0.93965 -2.57886,0.95074 -0.74167,0.0111 -1.67362,0.41191 -2.07099,0.89071 -0.39738,0.47881 -2.07233,1.05864 -3.72213,1.28852 -1.6498,0.22988 -3.55329,0.83641 -4.22998,1.34785 -0.67668,0.51143 -1.97698,0.92988 -2.88954,0.92988 -0.91256,0 -2.20091,0.39611 -2.86299,0.88024 -0.66209,0.48412 -1.5759,0.73744 -2.0307,0.56291 -0.45481,-0.17452 -1.17981,-0.036 -1.61113,0.3078 -0.43132,0.3438 -1.63988,0.76694 -2.6857,0.94028 -1.04582,0.17335 -3.61283,0.77453 -5.70446,1.33597 -2.09164,0.56144 -5.67326,1.1177 -7.95918,1.23614 -2.28591,0.11843 -4.53487,0.44936 -4.9977,0.73541 -0.46283,0.28604 -2.88799,0.46591 -5.38926,0.3997 -2.50126,-0.0662 -5.38631,0.19849 -6.41122,0.58819 -2.7353,1.04006 -14.96379,1.11568 -17.43267,0.1078 z m 16.98692,-27.60759 c 2.59147,-1.34011 3.14064,-2.15967 4.99384,-7.45261 2.42995,-6.94025 3.3895,-12.23254 3.4018,-18.76227 l 0.011,-5.84606 -13.46887,0.0961 c -7.40788,0.0529 -15.49764,-0.12234 -17.97725,-0.38937 l -4.50839,-0.4855 -0.43015,-21.01922 c -0.48913,-23.90106 -1.24671,-35.3268 -2.67421,-40.33191 -2.885222,-10.1162 -8.285122,-15.1106 -18.936493,-17.5145 -5.20474,-1.17466 -16.691464,-1.5937 -18.964124,-0.69183 -1.1193,0.44418 -1.03686,0.67184 1.02771,2.83833 3.23347,3.39308 5.20911,7.15903 7.71963,14.71509 3.23938,9.74972 3.881864,16.55815 3.857844,40.88197 -0.016,16.14928 -0.2943,23.40476 -1.221284,31.83461 -1.17759,10.70866 -1.17763,10.94367 -0.002,12.2427 2.696854,2.97998 14.673725,7.50719 25.963295,9.81402 10.421872,2.12952 27.152812,2.16728 31.207682,0.0704 z m 52.14084,1.13972 c 7.73065,-0.71662 19.573,-5.21586 32.64219,-12.40169 20.40737,-11.22056 28.91137,-19.37815 40.34725,-38.70367 5.06128,-8.55304 11.82752,-22.38504 13.89183,-28.39853 1.9744,-5.75161 2.44681,-17.2878 0.92265,-22.53075 -1.56831,-5.39479 -3.83927,-9.52868 -6.93558,-12.62498 -3.10566,-3.10566 -11.50371,-7.46037 -17.14193,-8.88875 -5.53767,-1.40291 -15.72949,-2.22391 -27.61478,-2.22451 -13.93866,-6.3e-4 -20.17298,0.79593 -25.15399,3.21423 -8.11507,3.93989 -8.39407,7.07537 -1.56685,17.60917 3.82526,5.90205 5.1088,9.97591 6.81735,21.63777 2.5183,17.18892 4.91435,22.79314 10.93189,25.569 3.95004,1.82214 14.14509,1.77991 20.6031,-0.0853 5.12528,-1.48032 5.24072,-1.36833 4.58284,4.44654 -0.8948,7.90905 -5.75607,13.62082 -17.50852,20.57176 -16.05657,9.49659 -33.26798,14.62932 -37.66968,11.23374 -1.24215,-0.95823 -1.22303,-1.01591 0.95074,-2.86728 1.22013,-1.03915 7.53348,-4.57423 14.02969,-7.85573 12.34613,-6.23653 15.12645,-8.37426 15.12645,-11.63044 0,-2.91013 -7.58439,-8.95361 -11.23654,-8.95361 -1.45492,0 -4.70881,2.17669 -11.89822,7.95933 -6.74619,5.42614 -11.59522,8.13155 -20.53415,11.45654 -7.57346,2.81709 -9.63074,4.51038 -11.19245,9.21225 -2.14303,6.45207 -0.10858,19.24359 3.5503,22.32233 3.16366,2.66205 10.1409,3.22258 24.05641,1.93263 z M 56.984673,614.10485 c 5.91777,-2.84907 10.84016,-9.77284 13.29961,-18.70706 0.78817,-2.86313 1.12498,-6.41748 1.13635,-11.99207 0.0375,-18.34579 -5.69225,-24.71933 -22.22214,-24.71933 h -4.78188 l 4.18677,-4.5221 c 5.60963,-6.05892 8.89148,-12.59249 8.47941,-16.88098 -0.6066,-6.31304 -5.75847,-13.51954 -11.87082,-16.60504 -6.20299,-3.13126 -10.44579,-4.08951 -18.10696,-4.08951 -7.81977,0 -12.19913,1.01663 -18.2817199,4.24395 -2.03702,1.0808 -4.4173,2.90071 -5.28952,4.04424 -7.5058302,9.84068 -4.35608003,36.18119 7.0779899,59.1912 4.71173,9.4819 8.46376,15.04371 14.21198,21.06705 7.42377,7.77909 16.15966,11.55243 25.09912,10.84117 2.18836,-0.17411 5.18656,-0.96869 7.06181,-1.87152 z M 165.42552,595.74541 c 8.8315,-2.02772 17.77957,-7.6876 22.76412,-14.39888 6.2671,-8.43811 8.82551,-16.95294 8.23693,-27.41386 -1.00641,-17.88692 -10.49232,-32.91291 -25.44235,-40.30149 -6.85761,-3.38916 -12.88513,-4.59517 -20.91636,-4.18503 -11.26748,0.57541 -19.27835,4.24756 -27.92983,12.80293 -4.07139,4.02616 -5.68141,6.19323 -7.76989,10.45818 -3.63321,7.41953 -4.64366,11.69932 -4.63716,19.64084 0.0105,12.82261 4.24605,23.21057 13.06135,32.03386 7.24435,7.25093 14.95102,10.80452 27.27553,12.57693 2.951,0.42439 10.99096,-0.21089 15.35766,-1.21348 z M 92.163808,513.64624 c 20.449432,-2.09395 32.290672,-6.65575 34.120862,-13.14494 0.36384,-1.29007 1.40761,-7.85768 2.31946,-14.59469 1.31985,-9.75129 1.50873,-12.57661 0.92621,-13.85509 -0.8985,-1.97199 -1.44369,-1.89508 -11.47085,1.61832 -4.33041,1.51733 -10.02339,2.95305 -14.02558,3.53713 -8.126242,1.18595 -17.032043,1.31636 -17.032043,0.24942 0,-0.40354 0.61642,-7.74803 1.36981,-16.3211 1.637381,-18.63217 2.013871,-58.16908 0.652411,-68.5121 -2.146141,-16.30423 -8.468691,-28.8914 -16.403545,-32.65673 -6.34394,-3.01039 -21.13767,-0.7352 -24.92982,3.83406 -1.03549,1.2477 -0.43591,2.44784 4.90804,9.8241 5.61797,7.75447 7.91554,16.07408 9.10635,32.97447 1.38622,19.67363 0.11838,38.88039 -4.43282,67.15421 -1.03812,6.44921 -2.22598,14.76909 -2.6397,18.48861 -0.72154,6.48709 -0.69519,6.88055 0.64652,9.65214 3.3308,6.88051 14.69399,12.00452 27.377254,12.34523 1.61894,0.0435 5.89729,-0.22338 9.507441,-0.59304 z m -70.963145,-5.3512 c 7.45986,-1.53275 14.258,-5.24373 19.01164,-10.3781 4.64175,-5.01353 9.58105,-13.94938 12.30542,-22.26215 1.5953,-4.8677 1.7681,-6.27434 1.79082,-14.57807 0.0222,-8.12837 -0.14211,-9.60817 -1.42206,-12.80438 -1.58431,-3.95626 -5.89324,-9.17444 -9.3295,-11.29817 -1.20495,-0.7447 -2.19081,-1.56313 -2.19081,-1.81874 0,-0.2556 0.96505,-0.92494 2.14456,-1.48741 7.49311,-3.57321 11.75978,-12.39548 11.78867,-24.37562 0.0285,-11.83687 -4.51139,-19.8714 -13.57238,-24.01965 -16.64445,-7.62009 -30.23157,1.46294 -41.49107993,27.7369 -7.77857017,18.1512 -12.49275007,37.69727 -14.08285007,58.39076 -0.87506,11.38801 -0.30626,16.77588 2.36781,22.42839 3.2731699,6.91892 10.95572007,12.49205 19.8861601,14.42597 5.4165299,1.17297 7.2526499,1.17875 12.7935999,0.0403 z m 146.228677,-2.83721 c 4.66832,-0.6868 8.61004,-1.3709 8.75936,-1.52023 0.14932,-0.14932 -0.35609,-1.50165 -1.12313,-3.00517 -1.30082,-2.54983 -1.37096,-3.33191 -1.04297,-11.6288 0.2415,-6.10897 1.36827,-15.34734 3.59732,-29.49457 5.86066,-37.19603 8.01501,-57.89099 7.48121,-71.86557 -0.26871,-7.03456 -0.60485,-9.14707 -2.18459,-13.72933 -4.07875,-11.83095 -10.98455,-18.50734 -23.34125,-22.56582 -6.91087,-2.26983 -20.52857,-2.80721 -30.19174,-1.19141 -14.62996,2.4463 -32.240412,10.35768 -32.240412,14.48378 0,3.09073 6.992602,12.86031 12.342582,17.24422 l 2.86005,2.3436 3.86576,-3.57901 c 7.38326,-6.83559 13.82166,-9.39341 20.10509,-7.98724 2.88532,0.64571 4.1051,1.37542 6.7941,4.06442 3.95414,3.95413 5.53122,8.0065 5.24733,13.48321 l -0.19168,3.69786 -8.23977,0.43449 c -10.53602,0.55559 -13.97421,1.30083 -20.59945,4.46503 -7.71344,3.68394 -13.28988,9.37797 -17.48993,17.85878 l -3.109512,6.27876 v 12.10228 12.10229 l 2.001842,3.82826 c 6.13862,11.73929 16.37671,16.73486 30.53605,14.89977 3.25439,-0.42178 6.04727,-0.63667 6.20641,-0.47754 0.15913,0.15914 -0.006,2.10756 -0.36628,4.32983 -0.36059,2.22228 -0.65777,8.77312 -0.66041,14.55744 -0.004,9.74306 0.10198,10.71883 1.44607,13.26055 2.88682,5.45907 9.30017,8.80818 16.93019,8.84109 2.26594,0.01 7.93943,-0.54416 12.60776,-1.23097 z m 25.84687,-3.47176 c 3.91492,-1.98152 13.07822,-4.6802 19.45991,-5.73112 l 2.45451,-0.40421 -0.39613,-2.65049 c -0.21788,-1.45776 -0.58207,-8.12721 -0.80932,-14.82098 -0.36456,-10.73827 -0.28174,-12.51469 0.70374,-15.09512 1.31029,-3.43096 2.37379,-3.97499 8.83885,-4.52149 5.42681,-0.45873 5.87577,-0.10701 6.71598,5.26137 0.52279,3.3403 2.53879,30.03686 2.53879,33.61953 0,1.43647 0.12311,1.46313 6.81366,1.47565 6.5057,0.0122 12.26662,0.58065 16.26615,1.60513 l 1.84653,0.47299 -0.41152,-15.46505 c -0.60143,-22.60176 -2.63958,-43.78848 -5.87079,-61.02695 -0.84186,-4.49131 -1.53064,-8.26832 -1.53064,-8.39336 0,-0.12503 -3.4507,-1.95712 -7.66821,-4.07129 -4.92823,-2.47045 -8.26877,-3.77443 -9.34897,-3.6494 l -1.68078,0.19455 -0.39939,10.66742 c -0.21967,5.86709 -0.65353,10.92156 -0.96415,11.23218 -0.31062,0.31062 -2.58533,0.85133 -5.05492,1.20158 -2.46959,0.35025 -4.95926,0.81683 -5.5326,1.03684 -1.42226,0.54577 -1.37876,-2.15791 0.21531,-13.38119 1.5293,-10.76725 1.66154,-23.62648 0.30227,-29.39298 -2.47287,-10.49079 -8.03087,-16.74121 -20.57488,-23.13814 -3.66037,-1.86663 -7.30086,-3.59083 -8.08999,-3.83156 l -1.43479,-0.43768 1.27609,3.23748 c 3.76191,9.54402 3.09339,29.06875 -2.50735,73.22984 -4.56468,35.99187 -5.33328,48.67077 -3.48348,57.46436 0.95598,4.54459 2.30788,7.50311 3.42856,7.50311 0.31281,0 2.51671,-0.98595 4.89756,-2.19102 z"
           style="fill:#1e3d73;fill-opacity:1;stroke:#000000;stroke-width:0.598894;stroke-linejoin:round;stroke-opacity:0;paint-order:stroke fill markers" />
        <g
           id="g1303"
           transform="translate(174.14787,-56.29405)">
          <path
             style="fill:#1e3d73;fill-opacity:1;stroke:#000000;stroke-width:0.598894;stroke-linejoin:round;stroke-opacity:0;paint-order:stroke fill markers"
             d="m -28.79016,636.37508 c -4.53731,-1.48219 -10.69188,-7.01043 -13.10393,-11.77039 -1.9976,-3.94208 -2.68303,-12.05551 -1.4043,-16.6227 1.02833,-3.67284 4.67599,-7.52449 9.1577,-9.66984 4.67179,-2.23634 12.65058,-2.5481 17.58664,-0.68717 4.56594,1.72138 10.1312896,6.70217 12.3242396,11.02975 4.42646997,8.73522 -0.56511,21.34872 -10.3411796,26.13171 -3.74024,1.82993 -10.9982,2.64082 -14.21917,1.58864 z"
             id="path863" />
          <path
             style="fill:#1e3d73;fill-opacity:1;stroke:#000000;stroke-width:0.598894;stroke-linejoin:round;stroke-opacity:0;paint-order:stroke fill markers"
             d="m 45.66126,613.59062 c -3.02699,-1.42479 -4.78636,-4.00674 -6.29747,-9.24179 -2.49163,-8.63194 1.22303,-16.30702 9.7788,-20.20456 2.3561,-1.07331 4.19803,-1.33334 9.57267,-1.35138 5.98581,-0.0201 6.97397,0.1454 9.82435,1.6453 3.73289,1.96429 7.80624,5.8623 8.33737,7.97849 1.68099,6.6976 -5.59546,17.19435 -14.17837,20.45322 -5.27812,2.00407 -13.56601,2.35466 -17.03735,0.72072 z"
             id="path865" />
          <path
             style="fill:#1e3d73;fill-opacity:1;stroke:#000000;stroke-width:0.598894;stroke-linejoin:round;stroke-opacity:0;paint-order:stroke fill markers"
             d="m -51.937714,503.91187 c -6.7327,-3.08865 -8.21706,-9.95949 -3.98238,-18.43383 2.93139,-5.86624 7.09052,-8.49454 14.67111,-9.27119 2.28227,-0.23383 4.8866,-0.24016 5.7874,-0.0141 2.14452,0.53824 2.10932,1.7933 -0.47312,16.86646 l -2.00896,11.72584 -5.70446,0.15637 c -4.47272,0.1226 -6.26266,-0.0997 -8.28959,-1.02958 z"
             id="path867" />
          <path
             style="fill:#1e3d73;fill-opacity:1;stroke:#000000;stroke-width:0.598894;stroke-linejoin:round;stroke-opacity:0;paint-order:stroke fill markers"
             d="m -161.54844,544.39505 c -0.60923,-1.58763 0.24292,-9.3899 1.96706,-18.01033 2.06856,-10.34251 3.255,-14.18903 5.00355,-16.22184 l 1.43178,-1.66454 1.94847,1.63953 c 1.07165,0.90174 2.62817,3.14353 3.45892,4.98176 2.10914,4.66694 2.08431,14.23224 -0.0513,19.74625 -1.88211,4.85959 -4.99666,8.2641 -8.72123,9.53319 -3.68522,1.25568 -4.55416,1.25499 -5.03729,-0.004 z"
             id="path869" />
          <path
             style="fill:#1e3d73;fill-opacity:1;stroke:#000000;stroke-width:0.598894;stroke-linejoin:round;stroke-opacity:0;paint-order:stroke fill markers"
             d="m -149.081,476.60197 c 0.23431,-2.00449 0.98665,-5.73896 1.67187,-8.29883 2.26076,-8.44597 3.87461,-9.99817 6.96974,-6.70355 1.28776,1.37076 1.5366,2.27694 1.5366,5.59571 0,3.30432 -0.31858,4.47536 -1.92391,7.07192 -1.12985,1.82751 -2.96105,3.69929 -4.4368,4.53514 -3.94377,2.23371 -4.31107,2.022 -3.8175,-2.20039 z"
             id="path871" />
          <path
             style="fill:#1e3d73;fill-opacity:1;stroke:#000000;stroke-width:0.598894;stroke-linejoin:round;stroke-opacity:0;paint-order:stroke fill markers"
             d="m -151.32308,609.45094 c -1.3515,-3.23461 -2.92821,-11.48428 -2.92821,-15.32106 0,-2.86576 0.19977,-3.43896 1.32277,-3.79538 1.90015,-0.60309 5.2625,0.16458 7.11981,1.62553 2.17748,1.71281 3.86342,6.29745 3.34061,9.08427 -0.44491,2.37158 -4.03724,7.63397 -6.45054,9.44938 -1.48642,1.11816 -1.5049,1.11014 -2.40444,-1.04274 z"
             id="path873" />
          <path
             style="fill:#1e3d73;fill-opacity:1;stroke:#000000;stroke-width:0.598894;stroke-linejoin:round;stroke-opacity:0;paint-order:stroke fill markers"
             d="m -138.02724,655.16101 c -1.00999,-1.56808 -2.91364,-10.10672 -2.91364,-13.06889 0,-2.55664 3.09639,-5.1537 6.14457,-5.1537 3.92949,0 8.41444,5.85027 8.42996,10.99622 0.0173,5.74018 -9.01347,11.33664 -11.66089,7.22637 z"
             id="path875" />
        </g>
      </g>
      <ellipse
         ry="12.99828"
         rx="4.2586756"
         cy="111.82211"
         cx="151.8226"
         id="path1476"
         style="opacity:0.997;fill:#ffffff;fill-opacity:1;stroke:#000000;stroke-width:0.943041;stroke-linejoin:round;stroke-opacity:0;paint-order:stroke fill markers" />
      <ellipse
         transform="rotate(165,333.46928,266.15537)"
         ry="15.291124"
         rx="5.070632"
         cy="269.77344"
         cx="342.58456"
         id="path1478"
         style="opacity:1;fill:#1e3d73;fill-opacity:1;stroke:#000000;stroke-width:0.944882;stroke-linejoin:round;stroke-opacity:0;paint-order:stroke fill markers;filter:url(#filter1504)" />
    </g>
  </g>
</svg>
