<?xml version="1.0" encoding="UTF-8" standalone="no"?>
<svg
   xmlns:dc="http://purl.org/dc/elements/1.1/"
   xmlns:cc="http://creativecommons.org/ns#"
   xmlns:rdf="http://www.w3.org/1999/02/22-rdf-syntax-ns#"
   xmlns:svg="http://www.w3.org/2000/svg"
   xmlns="http://www.w3.org/2000/svg"
   xmlns:sodipodi="http://sodipodi.sourceforge.net/DTD/sodipodi-0.dtd"
   xmlns:inkscape="http://www.inkscape.org/namespaces/inkscape"
   inkscape:version="1.0 (4035a4fb49, 2020-05-01)"
   sodipodi:docname="dragonmort.svg"
   viewBox="0 0 200 207"
   height="207"
   width="200"
   id="svg833"
   version="1.1">
  <metadata
     id="metadata839">
    <rdf:RDF>
      <cc:Work
         rdf:about="">
        <dc:format>image/svg+xml</dc:format>
        <dc:type
           rdf:resource="http://purl.org/dc/dcmitype/StillImage" />
        <dc:title></dc:title>
      </cc:Work>
    </rdf:RDF>
  </metadata>
  <defs
     id="defs837" />
  <sodipodi:namedview
     inkscape:current-layer="g841"
     inkscape:window-maximized="1"
     inkscape:window-y="-8"
     inkscape:window-x="-8"
     inkscape:cy="117.13437"
     inkscape:cx="26.953214"
     inkscape:zoom="1.2995169"
     showgrid="false"
     id="namedview835"
     inkscape:window-height="705"
     inkscape:window-width="1366"
     inkscape:pageshadow="2"
     inkscape:pageopacity="0"
     guidetolerance="10"
     gridtolerance="10"
     objecttolerance="10"
     borderopacity="1"
     bordercolor="#666666"
     pagecolor="#ffffff" />
  <g
     id="g841"
     inkscape:label="Image"
     inkscape:groupmode="layer">
    <g
       id="g891">
      <path
         id="path877"
         d="m 50.754029,199.77266 c -2.46678,-2.72044 -46.6204002,-76.77137 -46.0912302,-77.30053 0.20489,-0.2049 10.9273402,17.27265 23.8276702,38.839 l 23.45513,39.21153 48.500001,0.24012 c 26.675,0.13207 48.99678,-0.0929 49.60395,-0.5 1.16831,-0.78327 9.11742,-13.80699 19.06762,-31.24012 3.29616,-5.775 11.24349,-19.53621 17.66073,-30.58047 6.41723,-11.04426 11.6677,-20.95419 11.6677,-22.02208 0,-1.06789 -3.65579,-8.00669 -8.12398,-15.41954 -4.4682,-7.41285 -9.71013,-16.177917 -11.64874,-19.477917 -1.93861,-3.3 -4.60666,-7.8 -5.92901,-10 -1.32234,-2.2 -7.05601,-11.875 -12.74149,-21.5 l -10.33722,-17.5 -7.85628,-0.296502 c -4.32096,-0.163076 -8.26379,-0.704011 -8.76186,-1.202079 -0.54077,-0.540771 1.3748,-3.368655 4.7551,-7.019785 8.64698,-9.339777 10.63167,-14.7177024 6.40843,-17.3649614 -2.5705,-1.6112664 -7.18836,1.251548 -18.01864,11.1705434 -5.08547,4.657565 -11.00133,9.760809 -13.14635,11.340542 -3.89575,2.869084 -8.91771,3.785159 -10.11655,1.845397 -0.34905,-0.564765 1.67068,-4.488441 4.48827,-8.71928 4.13105,-6.203091 5.06535,-8.372497 4.82561,-11.204941 -0.23756,-2.8068434 -0.85115,-3.7061084 -3.05419,-4.4761864 -2.61857,-0.91533 -3.42552,-0.301608 -16.082921,12.2317854 l -13.32603,13.195467 h -13.51208 c -11.60851,0 -13.73157,0.246541 -15.07,1.75 -1.6988,1.908262 -17.74291,28.361712 -29.26378,48.25 -10.6253,18.342257 -17.4882902,29.455677 -17.4882902,28.319217 0,-0.55 2.30564,-4.78432 5.12365,-9.40961 2.8180002,-4.62528 8.3794902,-14.034607 12.3588702,-20.909607 3.97937,-6.875 12.13623,-20.6 18.12635,-30.5 l 10.89113,-18 14,-0.5 c 8.06599,-0.288071 14.84772,-1.001648 16,-1.683529 1.1,-0.650941 7.16766,-6.388441 13.48369,-12.75 C 106.30912,4.6236482 108.60776,3.3343772 111.79061,6.8513936 c 2.81626,3.111929 1.98867,7.2957924 -2.979,15.0603104 -3.52809,5.51444 -4.35583,7.521125 -3.46845,8.408507 1.91578,1.915778 8.50733,-2.356237 20.41703,-13.232367 12.02838,-10.9845154 15.41833,-12.9635428 19.23047,-11.2266144 4.81725,2.194887 2.64277,8.9104824 -5.76304,17.7983924 -2.73244,2.889145 -4.67465,5.72775 -4.31602,6.308011 0.35862,0.580261 3.70573,1.05502 7.43803,1.05502 5.2309,0 7.12605,0.401035 8.26988,1.75 0.81613,0.9625 4.99845,7.825 9.29403,15.25 4.29557,7.425 9.63074,16.425 11.85591,20 2.22518,3.575 5.4688,8.975 7.20804,12 1.73925,3.025 5.4411,9.180386 8.22634,13.678637 8.03843,12.98232 12.24177,20.86018 12.24177,22.94339 0,1.0614 -5.47105,11.36815 -12.1579,22.9039 -6.68684,11.53574 -14.60724,25.24908 -17.60088,30.47408 -10.05297,17.54607 -16.59117,28.48739 -18.0765,30.25 -1.36725,1.6225 -5.0208,1.75 -50.14539,1.75 H 52.794229 Z"
         style="fill:#a0a0a0" />
      <path
         id="path875"
         d="m 135.9456,191.51972 c -5.5363,-1.95867 -8.5,-5.64447 -8.5,-10.57099 0,-4.21782 4.47968,-13.92463 16.71292,-36.21446 6.80316,-12.39584 6.42078,-12.07296 11.87687,-10.02887 3.70089,1.38651 5.53023,-13.05462 3.39359,-26.78957 -0.85143,-5.47329 -0.94605,-8.40562 -0.27839,-8.62817 0.55627,-0.18543 1.85391,-0.9532 2.88366,-1.70617 1.77445,-1.29751 1.78584,-1.54382 0.21805,-4.71394 -3.06694,-6.201458 -10.58344,-14.547589 -16.62399,-18.458853 -5.21142,-3.374398 -6.04644,-4.346862 -6.34216,-7.386044 l -0.34055,-3.5 -14.25,-0.277457 c -10.41985,-0.202881 -14.24665,-0.606055 -14.23754,-1.5 0.007,-0.672398 2.83968,-5.722543 6.29517,-11.222543 l 6.28269,-10 10.55558,-0.282318 c 7.65578,-0.20476 10.84782,0.06996 11.6194,1 2.70263,3.257708 43.23351,74.178895 43.22448,75.634485 -0.006,0.90631 -4.98793,10.19784 -11.07179,20.64784 -6.08386,10.45 -15.79729,27.2125 -21.5854,37.25 -11.64671,20.19724 -11.18425,19.80674 -19.83259,16.74706 z M 38.721219,162.8539 c -9.36289,-16.13218 -19.15833,-33.03069 -21.76765,-37.55224 -2.60931,-4.52155 -4.50303,-8.79655 -4.20826,-9.5 0.29478,-0.70345 10.18943,-17.92901 21.98811,-38.279007 l 21.45216,-37 10.61101,-0.5 10.61101,-0.5 7.769,-7.50422 C 104.54879,13.306478 106.82432,11.324435 104.82968,14.900149 c -1.03625,1.857623 -4.832631,6.808513 -8.436421,11.001979 -5.3773,6.257169 -29.89602,38.776654 -36.2304,48.052822 -1.33267,1.951586 -1.5412,3.848704 -1.05512,9.599012 0.71564,8.466058 -1.4341,19.779748 -5.5044,28.968688 l -2.65774,6.00001 -0.5993,-6.26598 c -0.59425,-6.21314 -1.30809,-8.15997 -2.54021,-6.92785 -1.05373,1.05372 -3.23086,15.13838 -3.94146,25.49878 l -0.66498,9.69505 6.35925,10.37205 c 3.49759,5.70463 6.9449,10.59679 7.66068,10.87146 1.46895,0.56369 8.92112,-2.06886 11.78548,-4.16333 1.68245,-1.23023 1.73779,-1.65625 0.51258,-3.94557 -0.92567,-1.72964 -1.05288,-2.98511 -0.39014,-3.85052 13.48747,-17.61192 30.15558,-38.2977 32.077631,-39.80959 3.02773,-2.38161 7.50573,-2.56474 9.31803,-0.38106 2.88522,3.47649 1.57923,7.67782 -5.58809,17.97668 -9.226391,13.25757 -43.034821,58.19414 -46.466531,61.76112 l -2.72388,2.83124 z m 20.03731,-28.83124 c 0.36287,-1.375 0.66591,-2.8375 0.67342,-3.25 0.008,-0.4125 0.46365,-0.75 1.01365,-0.75 1.62095,0 1.1432,3.63767 -0.67342,5.12756 -1.5025,1.23227 -1.60603,1.11711 -1.01365,-1.12756 z m 14.03247,-30.54231 c -1.46642,-3.82141 3.26126,-21.457697 5.75206,-21.457697 1.66998,0 3.90254,5.976761 3.90254,10.447457 0,3.8196 -0.57838,5.18697 -3.61636,8.54966 -3.9253,4.34483 -5.12724,4.83462 -6.03824,2.46058 z m 20.69443,-50.909709 c -1.38419,-1.66784 -0.71427,-4.557258 2.15575,-9.297988 1.66832,-2.75574 2.54825,-3.25 5.786021,-3.25 3.96945,0 7.1831,-2.256078 27.5184,-19.318764 13.95536,-11.7094844 12.64793,-9.697787 -6.421,9.879756 -22.202,22.794172 -25.989371,25.661782 -29.039171,21.986996 z"
         style="fill:#00a3ec" />
      <path
         id="path873"
         d="m 135.9456,192.54406 c -2.2,-0.7907 -5.2375,-2.81358 -6.75,-4.49529 -4.32205,-4.80558 -3.78406,-8.99088 2.86554,-22.29277 6.92751,-13.8578 17.26175,-32.53947 18.38358,-33.2328 0.45818,-0.28316 1.96095,-0.086 3.3395,0.4381 1.87553,0.71308 2.81155,0.58534 3.71848,-0.50745 1.86913,-2.25215 2.36778,-14.73988 0.96508,-24.16822 l -1.26387,-8.49513 2.81466,-2.24434 2.81467,-2.24433 -3.21075,-5.003513 c -3.75088,-5.845242 -13.3343,-15.271464 -17.95595,-17.661409 -2.69027,-1.391194 -3.22094,-2.238032 -3.22094,-5.139935 v -3.47432 h -14.44098 c -7.94254,0 -14.69861,-0.416841 -15.01348,-0.926314 -0.53876,-0.871729 9.93336,-18.529 13.23966,-22.323686 1.26563,-1.452579 3.24047,-1.747398 11.61979,-1.734687 5.55225,0.0084 10.59122,0.345922 11.1977,0.75 0.60649,0.404078 10.87687,17.599584 22.82308,38.212235 14.49265,25.006409 21.58614,38.179809 21.31697,39.587919 -0.34641,1.81211 -11.94394,22.21784 -37.18951,65.43454 -6.83442,11.69952 -8.02621,12.40639 -16.05323,9.5214 z m 19.83259,-17.7714 c 5.78811,-10.0375 15.50154,-26.8 21.5854,-37.25 6.08386,-10.45 11.06616,-19.74153 11.07179,-20.64784 0.009,-1.45559 -40.52185,-72.376777 -43.22448,-75.634485 -0.77158,-0.930044 -3.96362,-1.20476 -11.6194,-1 l -10.55558,0.282318 -6.28269,10 c -3.45549,5.5 -6.28831,10.550145 -6.29517,11.222543 -0.009,0.893945 3.81769,1.297119 14.23754,1.5 l 14.25,0.277457 0.34055,3.5 c 0.29572,3.039182 1.13074,4.011646 6.34216,7.386044 6.04055,3.911264 13.55705,12.257395 16.62399,18.458853 1.56779,3.17012 1.5564,3.41643 -0.21805,4.71394 -1.02975,0.75297 -2.32739,1.52074 -2.88366,1.70617 -0.66766,0.22255 -0.57304,3.15488 0.27839,8.62817 2.13664,13.73495 0.3073,28.17608 -3.39359,26.78957 -5.45609,-2.04409 -5.07371,-2.36697 -11.87687,10.02887 -17.22012,31.37627 -19.2182,37.28553 -14.46292,42.77358 2.41236,2.78411 8.58119,5.39943 12.90438,5.47092 2.40354,0.0397 3.64887,-1.68073 13.17821,-18.20611 z m -102.681081,14.5 c -1.30728,-2.0625 -9.25921,-15.675 -17.67095,-30.25 -8.41174,-14.575 -17.24853,-29.77846 -19.63732,-33.78547 -2.38878,-4.00701 -4.34324,-7.69672 -4.34324,-8.19937 0,-0.90815 37.97022,-67.095022 42.60459,-74.265167 l 2.42379,-3.75 h 9.82423 9.82423 l 14.20076,-13.627492 c 7.81041,-7.495121 14.410241,-13.418003 14.666281,-13.16196 0.25604,0.256042 -5.911951,6.500914 -13.706661,13.877492 l -14.17219,13.41196 -10.46252,0.5 -10.46253,0.5 -21.45216,37 c -11.79868,20.349997 -21.69333,37.575557 -21.98811,38.279007 -0.29477,0.70345 1.59895,4.97845 4.20826,9.5 2.60932,4.52155 12.40476,21.42006 21.76765,37.55224 l 17.02344,29.33124 2.72388,-2.83124 c 3.43171,-3.56698 37.24014,-48.50355 46.466531,-61.76112 7.16732,-10.29886 8.47331,-14.50019 5.58809,-17.97668 -1.8123,-2.18368 -6.2903,-2.00055 -9.31803,0.38106 -1.922051,1.51189 -18.590161,22.19767 -32.077631,39.80959 -0.66274,0.86541 -0.53553,2.12088 0.39014,3.85052 1.22521,2.28932 1.16987,2.71534 -0.51258,3.94557 -2.86436,2.09447 -10.31653,4.72702 -11.78548,4.16333 -0.71578,-0.27467 -4.16309,-5.16683 -7.66068,-10.87146 l -6.35925,-10.37205 0.66498,-9.69505 c 0.7106,-10.3604 2.88774,-24.44506 3.94146,-25.49878 1.23212,-1.23212 1.94596,0.71471 2.54021,6.92785 l 0.5993,6.26598 2.65774,-6.00001 c 4.0703,-9.18894 6.22004,-20.50263 5.5044,-28.968688 -0.48608,-5.750308 -0.27755,-7.647426 1.05512,-9.599012 6.2461,-9.146893 30.64467,-41.595677 35.28886,-46.932297 6.760981,-7.768998 10.094481,-12.479643 10.425031,-14.73186 0.25693,-1.750568 2.56885,-3.1019024 2.56885,-1.501512 0,1.291972 -5.10803,8.246032 -13.025871,17.733372 -3.6721,4.4 -13.25117,16.929619 -21.28682,27.843598 l -14.61027,19.843598 0.57478,7.656402 c 0.44019,5.863673 0.0847,9.703539 -1.51809,16.399319 -2.07192,8.65543 -6.38491,18.75709 -8.00849,18.75709 -0.46259,0 -1.26904,-1.9125 -1.79212,-4.25 l -0.95104,-4.25001 -1.12859,5.00804 c -0.62072,2.75442 -1.43164,9.50442 -1.80204,15 l -0.67345,9.99197 5.65841,9.1669 c 3.11213,5.0418 6.30268,9.7016 7.09011,10.35511 1.57847,1.31001 5.94241,0.2112 10.17471,-2.5619 1.93112,-1.26533 2.10447,-1.79837 1.10519,-3.39847 -0.79252,-1.26903 -0.87396,-2.56614 -0.2458,-3.91518 0.51666,-1.10958 7.78263,-10.72892 16.14659,-21.37632 16.903671,-21.51852 19.918441,-24.04934 25.320421,-21.25586 3.26579,1.68881 4.54589,5.0645 3.50029,9.23051 -0.8405,3.34882 -9.18391,15.16658 -33.362461,47.25521 -19.43686,25.79569 -22.01418,29 -23.32559,29 -0.44632,0 -1.88108,-1.6875 -3.18836,-3.75 z m 4.75722,-55.40462 c 0.82479,-5.15793 1.27366,-5.90449 3.1233,-5.19472 2.06077,0.7908 1.83004,5.71169 -0.36077,7.69435 -2.84439,2.57414 -3.48165,1.99753 -2.76253,-2.49963 z m 3.59127,-1.96782 c 0,-1.72365 -1.98259,-2.83381 -2.01365,-1.12756 -0.007,0.4125 -0.31055,1.875 -0.67342,3.25 -0.59238,2.24467 -0.48885,2.35983 1.01365,1.12756 0.92038,-0.75485 1.67342,-2.21735 1.67342,-3.25 z m 10.33813,-27.4388 c -1.71441,-4.46769 3.64475,-23.438767 6.62124,-23.438767 2.03205,0 5.0331,6.434591 5.03689,10.799657 0.004,5.05496 -1.91978,9.20842 -5.61114,12.11204 -3.15855,2.48452 -5.22667,2.66478 -6.04699,0.52707 z m 7.04551,-3.44165 c 3.03798,-3.36269 3.61636,-4.73006 3.61636,-8.54966 0,-4.470696 -2.23256,-10.447457 -3.90254,-10.447457 -2.4908,0 -7.21848,17.636287 -5.75206,21.457697 0.911,2.37404 2.11294,1.88425 6.03824,-2.46058 z m 14.11546,-47.640873 c -2.01526,-2.015261 -1.36246,-5.350487 2.07596,-10.606244 2.1042,-3.216369 2.98493,-3.752889 6.189131,-3.770301 3.91254,-0.02126 8.69769,-3.471545 31.52352,-22.729699 8.06717,-6.8062704 10.71229,-8.3910484 10.71229,-6.4180824 0,1.6658974 -41.62894,43.0765064 -44.339671,44.1071244 -3.68951,1.40275 -4.22647,1.351959 -6.16123,-0.582798 z m 7.095501,-1.106244 c 1.68486,-0.9625 11.80284,-10.722554 22.4844,-21.689008 19.06893,-19.577543 20.37636,-21.5892404 6.421,-9.879756 -20.3353,17.062686 -23.54895,19.318764 -27.5184,19.318764 -3.237771,0 -4.117701,0.49426 -5.786021,3.25 -2.87002,4.74073 -3.53994,7.630148 -2.15575,9.297988 1.56713,1.88828 2.82802,1.830958 6.554771,-0.297988 z"
         style="fill:#056c99" />
      <path
         id="path871"
         d="m 50.664239,198.27266 c -3.35196,-4.80713 -46.2192002,-77.13318 -46.2057002,-77.95874 0.007,-0.4352 10.6165702,16.97848 23.5765702,38.69704 12.95999,21.71857 24.09167,39.82418 24.73706,40.23469 0.64539,0.41051 22.59119,0.75328 48.768441,0.7617 44.11121,0.0142 47.70296,-0.11278 49.06971,-1.73469 1.48998,-1.76813 8.10447,-12.83951 18.07258,-30.25 2.99149,-5.225 10.68689,-18.53621 17.10089,-29.58047 6.414,-11.04426 11.66181,-20.95419 11.66181,-22.02208 0,-1.06789 -3.65579,-8.00669 -8.12398,-15.41954 -4.4682,-7.41285 -9.57254,-15.952917 -11.34299,-18.977917 -1.77045,-3.025 -4.59518,-7.75 -6.27718,-10.5 -1.68199,-2.75 -6.99572,-11.75 -11.80828,-20 -4.81257,-8.25 -9.42679,-15.7875 -10.25383,-16.75 -1.15652,-1.34594 -3.06528,-1.75 -8.26694,-1.75 -11.28179,0 -12.28862,-1.295581 -5.865,-7.547052 8.28788,-8.065776 12.14625,-16.3916634 8.28317,-17.8740644 -2.33196,-0.894859 -11.49864,4.8823724 -17.32844,10.9211164 -12.60391,13.055655 -17.71723,16.087026 -23.43474,13.893011 -2.40639,-0.923419 -1.95657,-2.266923 3.44173,-10.279482 5.12592,-7.608284 6.19087,-11.860783 3.52447,-14.0737034 -0.79861,-0.662784 -2.31373,-0.931565 -3.36694,-0.597289 -1.05321,0.334275 -7.362591,6.2090234 -14.020841,13.0549964 l -12.10593,12.447223 -14.27714,0.277622 -14.27714,0.277622 -14.5,24.183242 c -7.975,13.300782 -16.525,27.661652 -19,31.913044 C 7.6490588,108.16453 4.4455988,113.37526 4.4455988,112.39124 c 0,-0.57715 2.30564,-4.83369 5.12365,-9.45898 2.8180002,-4.62528 8.3820902,-14.034607 12.3646402,-20.909607 11.52087,-19.888288 27.56498,-46.341738 29.26378,-48.25 1.33843,-1.503459 3.46149,-1.75 15.07,-1.75 h 13.51209 L 93.105779,18.827186 C 105.76318,6.2937926 106.57013,5.6800706 109.1887,6.5954006 c 2.20304,0.770078 2.81663,1.669343 3.05419,4.4761864 0.23974,2.832444 -0.69456,5.00185 -4.82561,11.204941 -2.81759,4.230839 -4.83732,8.154515 -4.48827,8.71928 1.19884,1.939762 6.2208,1.023687 10.11655,-1.845397 2.14502,-1.579733 8.06088,-6.682977 13.14635,-11.340542 10.83028,-9.9189954 15.44814,-12.7818098 18.01864,-11.1705434 4.22324,2.647259 2.23855,8.0251844 -6.40843,17.3649614 -3.3803,3.65113 -5.29587,6.479014 -4.7551,7.019785 0.49807,0.498068 4.4409,1.039003 8.76186,1.202079 l 7.85628,0.296502 10.33722,17.5 c 5.68548,9.625 11.41915,19.3 12.74149,21.5 1.32235,2.2 3.9904,6.7 5.92901,10 1.93861,3.3 7.18054,12.065067 11.64874,19.477917 4.46819,7.41285 8.12398,14.35165 8.12398,15.41954 0,1.06789 -5.25047,10.97782 -11.6677,22.02208 -6.41724,11.04426 -14.36457,24.80547 -17.66073,30.58047 -9.96497,17.45901 -17.90023,30.45778 -19.06762,31.23469 -0.60717,0.40408 -22.78581,0.74158 -49.28586,0.75 l -48.181901,0.0153 z m 6.95007,-3.93938 c -0.98583,-0.39357 -0.699,-1.21643 1.10537,-3.17105 3.11171,-3.37082 37.10186,-48.47168 46.458451,-61.64478 9.86518,-13.88917 10.65919,-18.70696 3.67368,-22.29075 -3.20345,-1.64347 -3.39805,-1.96593 -1.9244,-3.18895 0.90169,-0.74834 4.04829,-1.56037 6.99246,-1.80452 5.12574,-0.42507 5.53715,-0.27217 9.68938,3.60099 4.08233,3.80796 4.33635,4.36182 4.33635,9.45497 0,4.32403 -0.62147,6.39604 -3.09585,10.32176 -1.70272,2.70144 -11.55014,18.41171 -21.88315,34.91171 -10.333011,16.5 -19.705821,31.0125 -20.828461,32.25 -1.88157,2.07408 -2.86807,2.24383 -12.61685,2.17105 -5.81663,-0.0434 -11.17477,-0.31811 -11.90698,-0.61043 z"
         style="fill:#565758" />
      <path
         id="path865"
         d="m 52.238209,198.27266 c -0.83454,-0.9625 -11.53253,-18.625 -23.7733,-39.25 -12.24076,-20.625 -23.1443602,-38.20837 -24.2302202,-39.07415 -2.14713,-1.71196 -2.15931,-6.61294 -0.0154,-6.17585 0.67444,0.1375 1.22626,-0.12817 1.22626,-0.59039 0,-0.46222 2.31966,-4.62472 5.1548002,-9.25001 2.83514,-4.62528 7.44855,-12.45961 10.25203,-17.409607 2.80347,-4.95 11.14017,-19.0125 18.52599,-31.25 l 13.42878,-22.25 h 13.3192 c 7.67903,0 13.3192,0.399449 13.3192,0.943296 0,0.518813 -1.00013,1.643813 -2.22251,2.5 -1.63898,1.14799 -4.75744,1.556704 -11.87755,1.556704 -6.51262,0 -9.98749,0.406838 -10.67646,1.25 -0.56178,0.6875 -10.77486,18.114401 -22.69574,38.726446 -14.58827,25.224161 -21.54112,38.173261 -21.26688,39.607801 0.43617,2.28169 40.95701,72.73347 43.5197,75.66576 1.30602,1.49438 3.383,1.75 14.21944,1.75 10.84069,0 12.91128,-0.25503 14.20828,-1.75 1.27708,-1.47201 31.604101,-49.4635 42.459781,-67.19117 2.6981,-4.4061 3.33194,-6.47345 3.33194,-10.86765 0,-4.97016 -0.32648,-5.75296 -3.88235,-9.30884 -3.61176,-3.61175 -4.28411,-3.88235 -9.6465,-3.88235 -4.89208,0 -6.53625,0.51539 -10.86764,3.40662 -6.315131,4.21539 -7.322211,5.32494 -22.775771,25.09339 -16.13264,20.63712 -16.25578,20.83167 -14.84932,23.45968 1.01077,1.88865 0.70862,2.27822 -3.08392,3.97619 -2.31247,1.03532 -4.69724,1.68183 -5.29949,1.43669 -0.60226,-0.24515 -3.73633,-4.8037 -6.9646,-10.13011 l -5.86959,-9.68439 0.68903,-8.4919 c 0.76966,-9.48567 1.18383,-10.56616 4.05015,-10.56616 5.11126,0 11.7141,-20.41706 11.35704,-35.117816 l -0.22145,-9.11781 3.91849,-5.38219 c 10.43808,-14.337087 29.95272,-40.02746 34.47272,-45.382191 7.273261,-8.616449 10.930611,-14.404689 10.317341,-16.3285534 -0.45659,-1.432344 -0.37845,-1.45687 0.54621,-0.171447 1.86368,2.5907884 1.25288,4.4883974 -3.9682,12.3282494 -5.96957,8.963779 -6.04274,10.965525 -0.42666,11.671751 l 3.97613,0.5 -2.87067,2.25 c -1.84598,1.446857 -4.24527,2.25 -6.72162,2.25 -3.361621,0 -4.175521,0.490456 -6.405271,3.859826 -5.56385,8.407556 -3.58975,15.134863 4.02223,13.706847 2.983701,-0.559745 7.076441,-4.225881 24.700021,-22.125433 11.61806,-11.799986 21.33769,-21.240575 21.59918,-20.979088 0.74651,0.746517 -2.7127,5.56116 -8.06478,11.224833 -6.97889,7.385175 -6.40244,8.681808 4.1403,9.313015 l 8.35125,0.5 10.33587,17.5 c 5.68473,9.625 11.4178,19.3 12.74014,21.5 1.32235,2.2 3.9904,6.7 5.92901,10 1.93861,3.3 7.18054,12.065067 11.64874,19.477917 4.46819,7.41285 8.12398,13.90165 8.12398,14.41954 0,0.51789 -5.24781,9.97782 -11.66181,21.02208 -6.414,11.04426 -14.11265,24.35547 -17.10811,29.58047 -2.99547,5.225 -8.58344,14.7875 -12.41772,21.25 l -6.97141,11.75 h -47.76549 c -44.246231,0 -47.877281,-0.12894 -49.282851,-1.75 z m 93.997631,-4 c 1.1065,-0.9625 7.1709,-10.75 13.47645,-21.75 6.30555,-11 15.62701,-27.18027 20.71435,-35.95616 5.08734,-8.7759 9.69671,-16.93722 10.24304,-18.13629 0.84757,-1.86023 -1.17146,-5.90183 -13.7599,-27.54384 -8.11427,-13.950046 -17.46102,-30.088717 -20.77055,-35.863717 -3.30953,-5.775 -7.0924,-11.9625 -8.40637,-13.75 l -2.38904,-3.25 H 133.9456 122.54738 l -2.39397,3.25 c -5.44114,7.386768 -12.90792,20.786128 -12.36764,22.194084 0.46752,1.218349 3.26316,1.552709 14.86781,1.778203 l 14.29202,0.277713 -0.31422,2.69396 c -0.27469,2.355035 0.5163,3.218486 6.28724,6.863159 6.26119,3.954305 14.5199,12.657327 16.84838,17.754818 0.90654,1.98459 0.66049,2.62737 -1.73775,4.53966 -2.64089,2.10577 -2.73325,2.4445 -1.68741,6.18806 1.62208,5.80618 2.40495,19.35081 1.38488,23.96035 -0.84621,3.82392 -1.05529,4 -4.74964,4 -3.57512,0 -4.08662,0.37438 -6.83136,5 -6.56209,11.05889 -19.99846,37.88163 -20.82998,41.58243 -1.69836,7.55886 3.32873,13.92612 13.06865,16.5526 5.95611,1.60613 5.53888,1.62659 7.85145,-0.38503 z M 64.445599,131.98148 c 0,-2.21838 -3.57705,-5.3351 -5.34461,-4.65682 -0.7805,0.2995 -1.97931,2.87977 -2.66401,5.73392 -1.0337,4.30895 -1.01236,5.33308 0.12577,6.03648 1.6563,1.02365 7.88285,-4.59526 7.88285,-7.11358 z m 14.06186,-27.63368 c 5.6426,-5.09775 7.27486,-8.59404 6.48165,-13.883598 -0.72873,-4.859509 -4.38819,-10.941549 -6.58334,-10.941549 -0.8031,0 -2.7176,2.512979 -4.25447,5.584397 -4.54645,9.08607 -4.90018,22.9156 -0.58614,22.9156 0.48107,0 2.70511,-1.65368 4.9423,-3.67485 z M 130.4456,15.645098 c 0,-0.207656 0.7875,-0.995156 1.75,-1.75 1.58606,-1.243871 1.62143,-1.208501 0.37756,0.377555 -1.30637,1.665748 -2.12756,2.195479 -2.12756,1.372445 z"
         style="fill:#030507" />
    </g>
  </g>
</svg>
